<?xml version="1.0" standalone="no"?>
<!DOCTYPE svg PUBLIC "-//W3C//DTD SVG 20010904//EN"
 "http://www.w3.org/TR/2001/REC-SVG-20010904/DTD/svg10.dtd">
<svg version="1.0" xmlns="http://www.w3.org/2000/svg"
 width="16.000000pt" height="16.000000pt" viewBox="0 0 16.000000 16.000000"
 preserveAspectRatio="xMidYMid meet">
<metadata>
Created by potrace 1.11, written by Peter Selinger 2001-2013
</metadata>
<g transform="translate(0.000000,16.000000) scale(0.001325,-0.001325)"
fill="#000000" stroke="none">
<path d="M1726 10555 c-10 -8 -23 -12 -27 -9 -5 3 -9 -2 -9 -11 0 -10 -5 -13
-12 -9 -8 5 -9 2 -5 -10 6 -14 3 -17 -8 -12 -9 3 -13 2 -10 -3 3 -5 0 -13 -6
-17 -8 -4 -7 -9 2 -15 8 -5 9 -9 3 -9 -6 0 -11 -10 -10 -22 1 -13 -3 -26 -9
-30 -6 -5 -6 -11 2 -19 6 -6 9 -21 5 -33 -7 -19 -7 -51 -2 -68 6 -21 5 -34 -3
-45 -6 -8 -6 -13 0 -13 5 0 9 -11 9 -25 0 -14 -5 -25 -10 -25 -6 0 -4 -5 4
-10 13 -9 13 -11 0 -20 -11 -7 -12 -10 -2 -10 16 0 14 -47 -3 -69 -7 -11 -7
-13 2 -8 6 4 14 3 17 -2 3 -5 -1 -12 -10 -15 -14 -5 -14 -9 -3 -22 7 -9 12
-37 12 -65 -2 -40 1 -49 15 -50 9 0 12 -3 5 -5 -6 -3 -10 -15 -7 -28 2 -15 -1
-23 -11 -23 -8 0 -12 4 -9 9 3 4 0 8 -6 8 -6 0 -8 5 -4 13 5 7 2 7 -10 -2 -15
-12 -17 -12 -14 0 2 8 -4 13 -15 12 -10 0 -16 4 -14 11 5 14 -18 38 -28 28 -3
-4 -11 1 -16 11 -6 9 -14 15 -18 13 -4 -3 -15 6 -25 20 -11 13 -23 24 -29 24
-5 0 -18 10 -28 22 -11 11 -19 17 -19 13 0 -4 -8 2 -19 13 -10 12 -21 19 -25
15 -5 -6 -10 11 -7 29 0 4 -8 5 -19 3 -13 -2 -20 2 -20 11 0 8 -3 13 -7 11 -5
-3 -14 1 -21 9 -7 8 -9 14 -5 14 4 1 -5 8 -22 17 -16 10 -33 16 -37 15 -4 -1
-10 7 -13 18 -6 17 -17 22 -41 19 -4 0 -11 5 -15 13 -7 10 -9 10 -9 1 0 -7
-12 -13 -26 -13 -16 0 -23 -4 -18 -11 4 -7 -2 -6 -17 2 -22 11 -23 11 -10 -5
12 -14 12 -16 -3 -10 -10 4 -18 0 -22 -10 -3 -9 -11 -13 -16 -10 -6 4 -8 -1
-4 -14 4 -11 2 -23 -4 -27 -6 -4 -7 -12 -3 -18 5 -7 10 -25 12 -42 2 -16 8
-33 15 -37 6 -4 7 -8 2 -8 -5 0 -4 -6 1 -12 6 -7 9 -21 8 -30 -2 -10 2 -18 8
-18 8 0 7 -4 -2 -9 -11 -7 -9 -10 9 -16 15 -5 19 -10 11 -15 -10 -5 -9 -11 3
-22 8 -9 12 -18 9 -22 -4 -3 4 -17 16 -30 15 -16 19 -26 11 -31 -8 -5 -8 -11
-1 -19 6 -7 8 -16 4 -19 -3 -4 0 -7 7 -7 7 0 10 -3 7 -7 -4 -3 -1 -13 6 -21 9
-13 9 -14 0 -8 -8 4 -13 1 -13 -9 0 -9 5 -13 10 -10 6 3 10 -1 10 -9 0 -9 6
-16 13 -16 9 0 9 -2 -1 -9 -11 -6 -10 -10 4 -15 16 -6 16 -8 4 -16 -11 -7 -12
-10 -2 -10 7 0 10 -5 7 -10 -4 -6 -3 -10 2 -9 20 3 27 -2 13 -11 -13 -8 -12
-10 3 -10 10 0 15 -5 12 -10 -4 -6 -1 -18 6 -26 7 -8 14 -27 16 -42 2 -15 4
-35 5 -44 1 -10 6 -18 11 -18 5 0 7 -7 3 -15 -3 -8 -1 -15 5 -15 6 0 8 -4 4
-9 -3 -5 0 -13 6 -17 8 -4 7 -9 -2 -15 -10 -6 -11 -9 -1 -9 6 0 12 -11 12 -25
0 -14 4 -25 8 -25 4 0 9 -12 10 -27 1 -15 8 -30 15 -35 9 -6 9 -8 -1 -8 -10 0
-10 -4 2 -15 8 -8 13 -24 11 -35 -2 -11 0 -20 4 -20 5 0 8 -8 7 -17 -1 -22
-37 -64 -48 -57 -5 3 -8 2 -7 -3 4 -22 -4 -32 -31 -42 -17 -6 -30 -17 -30 -27
0 -14 -2 -15 -17 -3 -9 8 -14 10 -12 4 3 -5 -2 -18 -13 -27 -10 -10 -18 -15
-18 -10 0 4 -7 -2 -16 -13 -8 -11 -18 -20 -22 -20 -4 0 -6 -4 -4 -8 1 -4 -6
-7 -15 -5 -13 2 -17 -3 -15 -16 2 -11 -1 -15 -7 -11 -6 3 -11 -1 -11 -10 0 -9
-5 -13 -10 -10 -6 3 -13 -2 -17 -12 -3 -10 -17 -33 -30 -50 -20 -27 -21 -32
-6 -27 10 3 5 -3 -12 -15 -18 -12 -24 -21 -15 -21 12 -1 11 -3 -2 -11 -10 -5
-18 -19 -18 -29 0 -11 -5 -20 -11 -20 -6 0 -9 -6 -7 -12 3 -7 -1 -19 -9 -26
-7 -8 -11 -18 -8 -23 4 -5 2 -9 -4 -9 -6 0 -7 -7 -4 -17 4 -10 2 -14 -5 -9
-10 6 -29 -29 -24 -46 1 -5 -3 -8 -10 -8 -6 0 -8 -3 -5 -7 4 -3 -1 -15 -10
-26 -10 -11 -12 -17 -5 -13 6 4 12 2 12 -3 0 -6 -5 -11 -11 -11 -6 0 -8 -7 -5
-16 4 -10 2 -13 -6 -8 -8 5 -9 2 -5 -10 4 -9 3 -15 -1 -12 -4 3 -14 -4 -21
-16 -7 -11 -8 -17 -2 -13 6 3 11 1 11 -4 0 -6 -5 -11 -11 -11 -6 0 -8 -7 -5
-16 4 -10 2 -13 -6 -8 -8 5 -9 2 -5 -10 4 -10 3 -15 -3 -11 -5 3 -13 -11 -19
-31 -5 -19 -20 -44 -32 -55 -12 -10 -18 -19 -13 -19 5 0 2 -6 -7 -13 -9 -7
-21 -22 -28 -35 -7 -12 -16 -20 -20 -17 -5 3 -12 -2 -15 -11 -3 -8 -11 -12
-16 -9 -6 4 -10 3 -9 -2 3 -20 -2 -33 -14 -31 -6 2 -11 -3 -9 -11 2 -9 -3 -11
-15 -7 -9 4 -15 4 -11 1 8 -9 -32 -55 -47 -55 -7 0 -17 -10 -24 -22 -6 -13 -9
-15 -6 -5 3 10 1 15 -5 12 -6 -3 -10 -13 -10 -21 0 -8 -4 -12 -10 -9 -5 3 -22
-6 -37 -22 -16 -15 -32 -26 -37 -25 -5 2 -6 -4 -3 -12 4 -10 0 -14 -13 -11
-19 4 -35 -19 -24 -36 3 -5 0 -9 -6 -9 -6 0 -8 -5 -4 -12 4 -7 3 -8 -4 -4 -7
4 -12 1 -12 -6 0 -8 -3 -9 -8 -3 -9 13 -22 13 -47 -2 -19 -12 -19 -12 5 -10
14 1 25 -2 25 -8 0 -5 -4 -9 -9 -7 -11 4 -37 -19 -31 -28 2 -4 -7 -12 -20 -18
-14 -7 -25 -16 -25 -22 0 -6 -4 -8 -10 -5 -5 3 -10 0 -10 -7 0 -9 -17 -13 -59
-13 -49 1 -58 -2 -53 -15 3 -8 1 -12 -3 -7 -5 4 -17 -1 -28 -10 -11 -10 -17
-12 -13 -5 4 6 3 12 -2 12 -6 0 -13 -7 -16 -16 -3 -8 -10 -12 -16 -9 -5 3 -10
-1 -10 -9 0 -8 -8 -19 -17 -25 -14 -8 -15 -12 -4 -25 11 -13 11 -16 0 -16 -12
0 -12 -2 0 -9 8 -5 10 -14 6 -21 -5 -9 -4 -11 3 -6 11 7 17 -6 13 -27 -1 -5 3
-5 10 -2 11 8 56 -34 51 -48 -1 -5 1 -6 6 -3 11 6 24 -4 40 -32 11 -19 11 -26
0 -40 -11 -13 -11 -14 1 -7 11 6 13 4 8 -8 -3 -9 -3 -16 1 -16 19 3 25 -2 12
-11 -10 -6 -11 -10 -2 -10 6 0 12 -5 12 -11 0 -5 -6 -7 -12 -4 -7 4 -4 -1 6
-9 15 -12 16 -16 5 -16 -10 -1 -10 -3 3 -11 10 -5 15 -16 12 -24 -4 -10 0 -15
15 -15 14 0 21 -6 21 -20 0 -11 7 -20 15 -20 8 0 15 -4 15 -10 0 -5 9 -10 20
-10 11 0 20 -4 20 -9 0 -5 7 -12 16 -15 9 -4 13 -2 8 5 -4 8 0 7 15 0 11 -7
21 -15 21 -19 0 -5 12 -7 28 -7 15 1 32 -1 37 -4 6 -3 19 -6 30 -6 11 0 26 -4
33 -8 7 -5 12 -4 12 3 0 8 6 8 20 0 15 -8 20 -8 20 2 1 9 5 7 14 -4 10 -13 15
-15 25 -5 9 9 13 7 17 -11 4 -12 10 -20 14 -17 14 9 40 -6 33 -19 -4 -6 2 -4
12 4 16 13 18 13 13 0 -3 -8 -1 -24 5 -35 9 -18 8 -18 -6 -7 -13 11 -15 10
-10 -7 3 -11 15 -32 28 -45 13 -14 20 -27 17 -30 -3 -3 1 -6 8 -6 8 0 25 -10
38 -22 14 -13 22 -16 17 -8 -6 12 -5 13 6 3 7 -7 23 -13 36 -13 13 0 23 -4 23
-10 0 -5 5 -10 11 -10 5 0 7 6 3 13 -6 8 -3 8 9 -2 10 -8 31 -12 52 -9 19 2
35 1 35 -3 0 -3 18 -3 40 1 27 5 40 4 40 -4 0 -8 2 -8 8 0 4 6 15 10 25 8 9
-1 17 3 17 9 0 8 3 8 8 2 10 -15 35 -18 26 -4 -5 9 -2 10 9 6 10 -4 17 -2 17
5 0 7 5 6 15 -2 12 -10 15 -10 15 0 0 7 7 10 15 6 8 -3 15 -1 15 4 0 5 9 7 20
5 11 -2 20 1 20 6 0 5 6 9 13 7 6 -1 23 4 37 12 14 7 26 13 28 12 10 -7 22 0
16 10 -5 8 -2 9 9 5 9 -3 19 -2 23 4 3 6 12 8 19 5 7 -2 23 7 35 21 16 19 24
22 30 13 6 -9 11 -7 19 8 7 13 17 19 26 16 9 -4 15 0 15 7 0 11 3 11 10 -1 7
-12 10 -12 10 -1 0 8 6 11 16 7 8 -3 13 -2 10 3 -3 5 12 11 34 15 22 3 40 10
40 15 0 4 11 7 25 6 14 -2 25 2 25 8 0 8 3 7 9 -2 6 -9 11 -10 15 -2 5 8 13 8
29 -1 19 -10 21 -9 9 4 -10 13 -10 18 -1 24 8 4 9 3 5 -4 -10 -16 16 -15 33 1
11 10 12 9 6 -3 -8 -13 -7 -13 8 -1 14 11 17 11 17 0 1 -9 4 -8 11 4 7 13 14
15 23 8 6 -5 18 -6 25 -2 17 11 94 1 103 -13 7 -10 12 -2 9 16 0 4 6 5 14 2 8
-4 15 -11 15 -18 0 -6 5 -4 10 4 6 10 10 11 10 3 0 -7 7 -13 16 -13 9 0 13 5
9 13 -4 6 0 4 8 -5 11 -14 16 -15 27 -5 10 10 11 9 5 -2 -6 -11 -3 -13 13 -9
12 4 22 2 22 -3 0 -5 5 -9 11 -9 5 0 7 6 3 13 -4 6 2 4 14 -6 11 -11 25 -16
30 -13 5 3 18 -3 30 -14 11 -11 26 -21 33 -22 19 -4 38 -22 32 -30 -2 -5 3 -8
11 -8 19 0 57 -36 48 -45 -4 -3 2 -3 12 1 14 5 17 4 12 -4 -4 -7 -1 -12 9 -12
9 0 13 -4 10 -10 -9 -15 6 -12 25 5 14 13 17 13 17 0 0 -8 -4 -12 -9 -9 -4 3
-8 -1 -8 -9 0 -7 11 -20 25 -27 13 -7 22 -17 19 -21 -2 -4 4 -6 14 -4 14 2 18
-2 17 -18 -1 -12 7 -28 17 -35 10 -7 16 -17 13 -22 -3 -5 1 -26 10 -46 14 -34
14 -36 -5 -41 -11 -3 -20 -9 -20 -14 0 -5 -6 -8 -12 -6 -7 1 -12 -6 -12 -15 1
-11 -4 -14 -14 -10 -11 4 -14 1 -9 -11 3 -8 1 -17 -6 -20 -13 -4 -18 -127 -5
-127 5 0 6 5 2 12 -5 7 -3 8 5 3 9 -5 10 -10 2 -18 -7 -7 -5 -15 7 -24 9 -8
11 -11 4 -8 -19 10 -12 -36 8 -52 13 -11 13 -12 0 -13 -13 0 -13 -2 -1 -9 8
-5 12 -18 8 -30 -3 -14 1 -22 14 -26 10 -4 19 -10 19 -14 0 -4 6 -8 14 -8 8 0
12 6 8 15 -4 11 -1 13 8 7 10 -6 12 -2 8 18 -3 14 -2 25 1 24 3 -1 7 1 8 6 6
20 45 50 67 52 22 3 24 1 16 -15 -8 -15 -6 -21 7 -29 10 -6 14 -11 8 -11 -5 0
-3 -5 5 -10 11 -7 12 -10 2 -10 -10 0 -10 -4 2 -16 28 -28 18 -61 -16 -55 -5
0 -8 -6 -8 -14 0 -8 -5 -15 -11 -15 -8 0 -8 -4 -2 -12 5 -7 9 -32 9 -55 -1
-22 2 -39 7 -36 7 4 11 -11 8 -34 -1 -7 4 -13 11 -13 9 0 9 -3 -2 -10 -10 -7
-11 -10 -2 -10 8 0 11 -9 8 -25 -3 -17 -1 -23 6 -19 7 5 9 0 6 -14 -4 -12 -2
-22 4 -22 5 0 6 -5 3 -11 -4 -6 1 -17 11 -25 11 -9 13 -13 7 -9 -8 4 -13 0
-13 -9 0 -9 7 -16 15 -16 8 0 15 -5 15 -11 0 -5 -5 -7 -11 -3 -6 3 -3 -5 6
-19 9 -15 14 -30 11 -35 -3 -5 3 -17 14 -27 15 -14 17 -22 9 -36 -5 -11 -6
-19 -2 -18 19 3 23 -2 13 -21 -8 -16 -8 -18 4 -14 10 4 13 0 10 -13 -3 -11 1
-25 9 -32 8 -6 13 -20 10 -30 -3 -10 1 -22 8 -26 8 -6 10 -4 4 5 -5 8 -4 11 3
6 6 -4 9 -13 5 -21 -3 -8 0 -15 6 -15 6 0 8 -6 5 -14 -3 -8 0 -17 7 -22 8 -5
10 -3 4 6 -5 9 -4 11 4 6 9 -6 9 -11 0 -22 -10 -13 -6 -18 13 -15 4 0 4 -7 1
-16 -4 -11 -3 -14 5 -9 8 5 10 2 6 -8 -3 -9 -2 -16 4 -16 5 0 10 -12 10 -27 0
-15 5 -29 11 -31 6 -2 9 -8 5 -13 -3 -5 0 -9 5 -9 6 0 11 -9 11 -21 0 -11 4
-18 8 -15 4 2 9 -4 10 -15 1 -10 3 -28 4 -38 1 -11 6 -17 10 -15 4 3 8 -2 8
-11 0 -9 5 -13 11 -10 6 4 9 1 8 -6 -2 -15 28 -89 37 -89 3 0 2 5 -2 12 -4 7
-3 8 5 4 6 -4 9 -12 5 -17 -3 -6 2 -17 12 -25 11 -9 13 -13 4 -9 -9 4 -7 0 4
-9 10 -8 15 -20 10 -27 -4 -8 -3 -10 4 -5 10 6 48 -50 44 -66 -1 -4 8 -5 19
-3 18 4 19 2 7 -12 -7 -9 -8 -14 -3 -11 6 4 17 -7 24 -23 7 -16 17 -27 22 -23
5 3 14 -6 21 -20 6 -14 17 -26 24 -26 7 0 18 -9 24 -20 6 -11 16 -20 22 -20 6
0 22 -12 36 -27 13 -16 21 -21 17 -13 -4 8 5 3 19 -13 16 -16 32 -24 39 -20 7
4 5 -2 -3 -12 -9 -11 -10 -16 -3 -11 8 4 13 2 13 -4 0 -6 7 -18 15 -27 8 -8
12 -19 9 -25 -4 -7 -2 -8 4 -4 7 4 12 2 12 -4 0 -6 5 -8 12 -4 6 4 8 3 4 -4
-3 -6 1 -17 9 -25 8 -9 15 -20 15 -25 0 -6 6 -13 13 -15 9 -4 9 -8 -2 -15 -10
-7 -10 -11 -1 -14 7 -2 12 -28 13 -66 1 -34 6 -62 10 -62 4 0 3 -10 -4 -21 -9
-17 -8 -20 2 -14 9 6 11 2 7 -13 -4 -13 -1 -22 5 -22 7 0 5 -5 -3 -10 -11 -7
-11 -10 -2 -10 9 0 10 -5 3 -18 -6 -11 -6 -24 0 -35 6 -9 7 -17 3 -17 -3 0 -1
-6 5 -14 7 -9 8 -17 2 -20 -8 -5 -8 -26 -1 -46 6 -15 4 -36 -5 -42 -6 -5 -5
-8 3 -8 9 0 10 -6 4 -17 -4 -10 -7 -24 -6 -30 1 -7 2 -18 3 -24 0 -5 6 -7 12
-3 6 3 3 -6 -7 -22 -14 -21 -15 -26 -4 -19 13 8 13 7 1 -8 -11 -14 -11 -17 0
-17 10 0 10 -3 3 -8 -6 -4 -11 -24 -10 -44 1 -23 -4 -40 -12 -43 -8 -3 -10
-10 -5 -17 11 -18 10 -32 -2 -40 -6 -5 -5 -8 3 -8 8 0 10 -5 5 -12 -4 -7 -8
-35 -9 -62 -1 -27 -7 -52 -14 -56 -9 -6 -9 -9 1 -13 12 -5 12 -7 0 -15 -11 -8
-11 -10 0 -15 10 -4 10 -6 2 -6 -7 -1 -13 -9 -13 -19 0 -10 6 -24 13 -31 10
-11 10 -13 0 -7 -14 8 -16 0 -15 -47 0 -15 -3 -25 -8 -22 -5 3 -7 -13 -6 -35
2 -22 0 -40 -4 -40 -4 0 -6 -13 -5 -30 2 -18 -1 -27 -8 -23 -6 4 -8 -2 -5 -15
4 -13 1 -22 -5 -22 -8 0 -7 -4 1 -12 9 -9 8 -16 -6 -32 -9 -11 -11 -16 -4 -12
14 9 17 -10 2 -19 -6 -4 -8 -11 -5 -16 4 -5 0 -9 -7 -9 -10 0 -10 -2 1 -9 9
-6 10 -10 2 -16 -9 -5 -9 -11 1 -23 8 -9 8 -13 2 -9 -7 4 -15 0 -18 -9 -3 -8
-2 -12 4 -9 6 3 7 -1 4 -9 -3 -9 -11 -16 -18 -16 -7 0 -8 -3 -1 -8 17 -11 13
-63 -4 -57 -11 4 -11 2 -2 -9 9 -11 9 -16 0 -21 -8 -6 -7 -10 2 -16 11 -7 11
-9 1 -9 -7 0 -10 -4 -7 -10 3 -5 0 -10 -7 -10 -9 0 -9 -3 2 -10 9 -6 10 -10 3
-10 -6 0 -10 -9 -8 -20 2 -11 -1 -20 -7 -20 -7 0 -6 -5 1 -14 9 -10 9 -16 1
-21 -6 -4 -9 -13 -6 -21 3 -8 1 -14 -5 -14 -6 0 -8 -9 -4 -21 5 -14 1 -25 -12
-35 -17 -13 -17 -14 2 -8 18 5 18 4 4 -8 -9 -7 -14 -19 -12 -25 3 -7 1 -13 -4
-13 -5 0 -9 -8 -10 -17 -4 -51 -7 -69 -16 -81 -15 -19 -17 -73 -3 -65 6 3 7 2
3 -3 -5 -5 -13 -10 -18 -10 -22 -3 -23 -5 -9 -14 9 -6 11 -10 3 -10 -7 0 -10
-7 -7 -15 4 -8 1 -15 -7 -15 -7 0 -9 -3 -6 -7 4 -3 1 -13 -6 -21 -10 -13 -9
-14 3 -7 13 8 13 7 1 -8 -7 -9 -10 -17 -6 -17 4 0 -10 -16 -30 -35 -20 -20
-41 -33 -47 -29 -6 4 -8 3 -5 -3 4 -6 -13 -20 -38 -32 -25 -12 -45 -26 -45
-33 0 -6 -3 -9 -6 -5 -4 3 -19 0 -34 -8 -15 -8 -31 -11 -35 -7 -3 4 -5 0 -3
-8 2 -9 -4 -14 -14 -14 -10 1 -16 -2 -13 -6 3 -5 1 -11 -5 -15 -5 -3 -10 0
-10 7 0 7 -7 2 -16 -11 -13 -18 -18 -20 -25 -10 -6 10 -9 8 -9 -9 0 -13 -4
-21 -9 -17 -6 3 -14 -3 -20 -12 -6 -11 -11 -13 -11 -5 0 7 -5 10 -10 7 -6 -4
-8 -11 -5 -16 5 -8 -1 -11 -21 -8 -3 0 -12 -8 -20 -18 -7 -10 -14 -13 -14 -8
0 6 -7 -1 -15 -15 -8 -14 -14 -19 -15 -12 0 10 -3 10 -14 0 -7 -7 -11 -19 -8
-27 3 -9 1 -12 -6 -7 -7 4 -12 2 -12 -4 0 -6 -4 -8 -10 -5 -5 3 -10 -1 -10 -9
0 -8 -7 -22 -16 -30 -8 -9 -11 -16 -5 -16 6 0 11 -5 11 -11 0 -5 -5 -7 -11 -3
-8 5 -8 1 0 -13 6 -11 7 -23 4 -27 -3 -3 -1 -6 6 -6 7 0 9 -4 6 -10 -3 -5 -1
-10 5 -10 6 0 9 -4 5 -9 -3 -5 -1 -12 5 -16 5 -3 10 -1 10 5 0 6 5 8 10 5 6
-4 7 -11 4 -17 -5 -7 0 -9 14 -6 15 4 25 0 32 -10 5 -10 10 -13 10 -8 0 6 7 1
16 -10 8 -10 13 -13 9 -6 -4 7 0 12 10 12 9 0 14 -4 10 -9 -3 -6 3 -8 14 -6
11 2 34 0 51 -5 21 -6 30 -5 30 3 0 7 4 7 9 -2 5 -8 19 -15 30 -16 11 -1 17 3
14 8 -4 6 0 8 9 4 9 -3 21 0 27 6 9 9 11 8 6 -4 -4 -10 -1 -20 6 -25 7 -4 10
-3 5 4 -8 14 15 21 36 11 10 -6 19 -5 23 1 3 5 11 10 16 10 6 0 8 -4 5 -8 -2
-4 4 -8 14 -8 10 0 16 5 13 10 -4 5 1 7 9 3 9 -3 21 0 27 6 9 9 11 8 6 -4 -4
-10 -1 -20 6 -25 8 -4 10 -3 5 4 -4 7 -1 13 6 13 7 1 20 2 28 3 8 1 23 -2 32
-6 10 -5 20 -4 23 3 4 6 13 8 21 5 8 -3 14 -1 14 3 0 5 10 7 22 3 16 -4 19 -2
13 9 -8 12 -6 12 8 0 10 -8 17 -9 17 -3 0 6 9 9 20 7 11 -2 20 0 20 5 0 5 9 7
20 5 13 -3 18 0 14 7 -5 7 -1 9 9 5 10 -3 17 -2 17 4 0 6 5 7 10 4 6 -3 10 -1
10 4 0 6 11 11 25 11 14 0 25 4 25 10 0 5 7 6 17 3 10 -4 14 -2 9 5 -8 13 29
26 45 16 8 -4 9 -3 5 4 -4 7 -1 12 9 12 8 0 18 7 21 15 4 8 13 15 21 15 8 0
12 4 9 8 -3 5 6 16 19 26 14 10 22 23 19 28 -4 5 3 16 14 24 13 9 19 22 17 34
-2 11 0 20 5 20 5 0 8 14 6 30 -2 20 2 34 13 40 15 9 15 9 0 10 -13 0 -16 12
-17 65 0 43 4 65 11 65 7 0 5 5 -3 10 -13 9 -13 10 0 10 12 0 12 2 2 8 -7 5
-10 16 -6 25 3 9 11 14 16 11 6 -4 4 4 -2 17 -11 19 -10 24 6 36 10 7 13 13 7
13 -15 0 -10 33 6 38 9 3 9 7 0 18 -9 11 -8 15 4 20 9 3 13 12 10 21 -5 12 -3
14 7 8 8 -5 11 -3 8 6 -3 8 9 27 26 43 17 16 24 25 16 21 -8 -4 -5 2 8 14 12
12 19 27 16 33 -4 7 -2 8 4 4 7 -4 12 -1 12 9 0 9 12 27 26 40 15 14 23 29 18
36 -5 8 -3 9 6 4 8 -5 11 -3 8 6 -3 8 4 29 14 47 11 20 13 30 6 26 -9 -6 -9
-3 1 9 7 9 11 17 7 17 -4 0 0 13 9 29 11 23 12 31 2 35 -6 4 -2 4 11 2 19 -4
21 -2 12 9 -7 8 -8 20 -4 27 5 7 9 18 10 23 5 30 10 41 24 53 8 8 10 11 3 8
-6 -4 -14 -2 -18 4 -3 5 1 10 10 10 11 0 15 5 12 15 -4 8 -2 17 3 20 15 9 12
27 -2 20 -7 -4 -4 2 8 12 11 10 20 28 19 41 -1 12 2 22 6 22 5 0 6 7 3 15 -4
8 -1 15 6 15 6 0 9 4 5 9 -3 5 -1 13 5 16 8 5 7 12 -2 23 -7 9 -8 13 -2 9 6
-3 18 9 28 30 16 35 16 36 0 22 -16 -13 -16 -12 -4 8 8 12 18 19 23 16 5 -3 4
4 -2 16 -7 13 -8 21 -2 21 6 0 8 6 5 13 -2 7 4 21 14 30 11 10 18 28 16 42 -1
14 1 25 6 25 4 0 6 11 4 26 -2 22 0 23 14 12 12 -10 14 -10 8 -1 -13 22 -16
54 -4 47 5 -4 15 0 20 7 8 11 9 10 4 -3 -3 -10 -1 -20 4 -23 5 -3 7 -14 5 -25
-2 -11 2 -20 8 -20 7 0 6 -4 -3 -10 -8 -5 -10 -10 -3 -10 6 0 10 -8 9 -18 -2
-9 1 -20 6 -23 5 -3 9 -22 10 -42 1 -20 5 -37 10 -37 4 0 8 -10 8 -22 0 -38 3
-58 9 -58 3 0 7 -16 8 -36 1 -20 7 -41 12 -48 7 -9 7 -16 -1 -24 -7 -7 -8 -12
-2 -12 5 0 11 -19 12 -42 3 -56 6 -76 15 -84 4 -4 2 -13 -4 -21 -6 -7 -7 -13
-2 -13 5 0 9 -15 8 -32 -1 -18 1 -37 4 -43 3 -5 5 -22 6 -37 1 -15 4 -31 8
-34 4 -4 2 -13 -4 -21 -9 -10 -8 -13 1 -13 7 0 10 -8 7 -20 -3 -11 0 -20 6
-20 7 0 6 -4 -2 -9 -12 -8 -12 -12 -2 -24 9 -12 9 -16 -1 -20 -7 -3 -4 -6 7
-6 17 -1 17 -3 5 -11 -13 -8 -13 -13 -2 -31 10 -16 10 -19 1 -13 -9 5 -10 2
-6 -9 3 -10 3 -17 -2 -17 -9 0 -7 -35 5 -64 5 -14 4 -17 -5 -11 -10 6 -11 3
-3 -11 5 -11 7 -24 5 -31 -2 -6 1 -14 6 -18 8 -4 8 -12 0 -26 -8 -15 -7 -24 2
-35 10 -12 9 -13 -7 -7 -17 6 -17 5 -5 -10 7 -9 10 -17 5 -17 -5 0 -2 -5 6
-10 12 -8 12 -10 -5 -11 -11 0 -15 -3 -8 -5 8 -4 9 -13 3 -29 -5 -12 -6 -25
-3 -28 11 -11 10 -92 -1 -106 -8 -11 -8 -13 1 -8 17 11 21 -13 7 -52 -11 -31
-10 -37 4 -43 15 -6 15 -7 -1 -7 -15 -1 -16 -4 -6 -22 8 -15 8 -19 0 -15 -6 4
-11 2 -11 -3 0 -6 6 -11 13 -11 7 0 8 -3 2 -8 -5 -4 -10 -27 -10 -52 0 -25 -2
-49 -6 -55 -3 -5 -7 -18 -8 -27 -4 -50 -6 -57 -10 -53 -2 3 -10 -3 -18 -13 -8
-9 -11 -11 -7 -3 5 9 3 12 -4 7 -7 -4 -12 -15 -12 -24 0 -15 -2 -15 -10 -2 -8
13 -10 12 -10 -3 0 -10 -4 -15 -10 -12 -5 3 -10 1 -10 -6 0 -7 -3 -10 -6 -7
-3 3 -17 -5 -31 -18 -14 -13 -29 -21 -34 -18 -5 3 -9 0 -9 -6 0 -7 -6 -10 -12
-7 -7 2 -22 -5 -34 -17 -11 -12 -27 -22 -35 -24 -7 -2 -16 -8 -17 -13 -2 -5
-8 -7 -13 -3 -5 3 -9 0 -9 -5 0 -6 -7 -11 -15 -11 -8 0 -14 -3 -14 -8 3 -19
-2 -33 -11 -27 -9 6 -14 -8 -11 -27 0 -5 -3 -8 -9 -8 -5 0 -10 -9 -10 -21 0
-12 -4 -17 -11 -13 -7 4 -7 -1 1 -16 8 -15 8 -20 1 -16 -6 4 -12 1 -12 -6 -3
-29 -12 -57 -30 -90 -6 -13 -5 -18 3 -18 10 0 9 -3 -1 -9 -19 -12 -6 -41 17
-41 22 0 46 -23 35 -33 -3 -4 -2 -7 3 -8 5 0 17 -2 27 -4 9 -2 15 1 11 6 -9
15 13 10 30 -7 9 -8 16 -11 16 -6 0 5 7 9 15 9 8 0 15 -5 15 -11 0 -6 5 -4 10
4 6 10 10 11 10 3 0 -7 10 -12 23 -12 12 1 43 -1 70 -4 32 -4 47 -2 47 6 0 8
3 7 9 -2 6 -9 11 -10 15 -2 4 6 12 8 18 5 13 -8 156 -9 164 -1 3 3 12 3 20 0
8 -3 21 1 30 8 9 7 18 9 22 3 10 -13 35 -17 27 -4 -3 5 -1 10 4 10 6 0 11 -5
11 -11 0 -6 7 -3 16 5 18 18 39 22 28 5 -4 -7 3 -6 17 2 31 16 59 19 59 5 0
-6 4 -5 9 3 5 8 16 11 24 8 8 -3 23 0 33 7 26 17 74 19 74 3 0 -9 3 -8 9 2 6
9 10 10 16 2 5 -8 11 -9 19 -2 7 6 34 12 59 13 42 3 45 4 30 17 -16 12 -16 13
-1 8 17 -6 63 27 63 44 0 5 5 13 10 17 6 4 10 14 10 22 0 8 4 18 9 22 14 10
16 38 3 38 -9 0 -9 2 0 8 7 4 12 35 12 77 1 97 0 108 -13 124 -8 11 -8 13 0 8
8 -4 11 3 10 23 0 17 -4 30 -8 30 -5 0 -8 5 -8 11 0 5 4 8 8 5 5 -3 9 1 9 9 0
8 -5 13 -11 12 -6 -1 -10 6 -8 17 2 13 -1 16 -10 10 -10 -6 -10 -4 1 9 9 11
10 17 2 17 -6 0 -11 17 -11 38 0 21 -6 44 -12 51 -11 11 -10 14 0 18 10 4 9
10 -4 30 -9 14 -11 22 -5 19 6 -4 11 -2 11 3 0 6 -6 11 -12 11 -9 0 -8 4 2 10
12 8 12 10 -5 11 -19 0 -19 1 -1 8 18 7 18 8 2 14 -16 6 -16 10 -5 24 10 12
10 15 1 9 -9 -5 -12 1 -12 21 0 15 0 46 0 68 0 30 -2 36 -10 25 -5 -8 -10 -10
-10 -4 0 6 3 14 7 18 12 12 12 36 0 36 -7 0 -5 5 3 10 8 5 10 10 3 10 -7 0
-10 14 -7 40 2 23 0 39 -4 36 -5 -3 -9 1 -9 9 0 8 5 11 11 8 6 -4 5 1 -3 10
-9 12 -10 17 -2 17 7 0 9 5 5 12 -9 15 -13 89 -5 83 3 -1 5 19 4 46 -1 26 2
51 7 54 6 4 7 14 2 23 -9 19 -8 54 2 71 4 6 2 11 -5 11 -8 0 -7 5 2 17 12 15
12 16 -1 8 -12 -6 -13 -5 -2 6 16 17 16 32 0 23 -10 -6 -10 -4 -2 7 12 16 12
29 0 48 -6 10 -5 12 2 7 7 -4 12 -4 13 1 0 4 1 54 2 110 1 66 5 99 12 96 5 -3
4 0 -2 8 -16 16 -17 33 -2 23 8 -5 8 -1 0 13 -7 14 -7 23 1 31 9 9 8 12 -2 12
-13 0 -13 2 0 10 13 9 13 11 0 20 -12 8 -12 10 -1 10 11 0 11 3 0 17 -10 11
-10 14 -1 9 12 -7 14 2 15 61 0 13 3 23 7 23 10 0 8 20 -4 39 -7 10 -6 12 4 6
10 -6 12 -4 7 8 -3 9 -1 18 6 21 8 3 7 5 -2 5 -11 1 -10 5 5 17 10 8 13 13 7
9 -16 -8 -16 0 -3 26 8 14 7 19 -2 19 -10 0 -10 2 1 9 7 5 10 14 7 20 -4 6 -2
11 4 11 8 0 7 6 -1 21 -8 17 -8 20 1 14 9 -5 10 -1 5 15 -5 17 -4 21 6 15 11
-6 12 -5 2 5 -10 11 -9 18 5 34 9 11 12 16 6 13 -7 -4 -14 0 -17 8 -4 10 -1
12 10 8 13 -5 14 -3 4 15 -9 17 -9 22 0 22 8 0 7 5 -2 17 -8 9 -9 14 -3 10 16
-10 20 7 19 90 0 39 3 69 6 67 4 -2 9 3 13 11 3 8 1 15 -5 15 -5 0 -2 14 7 31
8 17 11 28 6 25 -6 -4 -13 -2 -17 4 -3 5 0 10 8 10 7 0 14 7 14 15 0 8 -4 12
-9 9 -4 -3 -8 -1 -8 4 0 6 6 12 13 15 14 5 16 54 3 76 -7 10 -6 12 4 6 10 -6
12 -4 7 10 -6 14 -3 16 13 12 11 -3 18 -1 14 4 -3 5 4 9 15 9 12 0 21 -4 21
-9 0 -14 223 -12 232 2 6 9 8 9 8 0 0 -7 5 -13 11 -13 5 0 7 5 3 12 -5 7 -3 8
7 2 20 -12 40 -14 33 -3 -8 13 10 11 25 -4 11 -9 13 -9 7 1 -5 8 2 12 24 12
22 0 29 4 24 13 -6 9 -3 8 8 -1 13 -11 21 -11 39 -2 17 10 20 10 13 -2 -6 -11
-5 -11 9 1 14 11 17 11 17 0 0 -9 3 -10 8 -4 4 6 14 10 22 10 8 -1 20 1 25 4
6 3 18 6 28 7 35 3 38 4 32 13 -3 6 6 6 25 1 17 -5 28 -5 25 0 -3 4 2 11 11
14 8 3 12 2 9 -3 -3 -5 8 -3 23 5 16 8 41 15 56 16 14 1 26 6 26 11 0 4 5 5
10 2 6 -3 10 0 10 7 0 10 3 9 10 -2 7 -12 11 -10 19 10 5 14 10 20 10 13 1 -9
8 -8 28 2 15 8 30 12 35 9 4 -3 8 -2 8 3 0 4 11 13 25 20 16 7 23 7 18 1 -7
-13 14 -2 39 19 9 8 25 16 35 18 10 1 17 8 15 15 -2 8 3 10 13 7 8 -4 15 -2
15 4 0 6 4 8 9 5 5 -3 12 1 15 9 3 8 9 15 13 14 21 -3 34 2 28 12 -4 6 -1 10
6 8 28 -3 39 1 39 17 0 8 5 12 10 9 6 -3 13 1 16 9 3 9 9 14 13 12 3 -2 15 0
26 5 20 8 20 8 0 8 -15 1 -7 10 29 36 51 36 71 54 46 40 -10 -5 -12 -5 -5 3 6
6 17 12 24 14 8 2 25 13 37 25 12 13 27 23 34 23 7 0 10 3 7 7 -8 7 34 39 46
35 5 -1 7 1 5 5 -5 10 39 53 46 45 3 -3 6 0 6 7 0 7 4 10 9 6 5 -3 13 4 16 16
4 11 9 18 12 15 3 -3 17 7 31 22 13 15 21 21 18 15 -4 -7 -2 -13 3 -13 6 0 11
7 11 16 0 8 5 12 10 9 6 -3 13 0 16 9 3 8 12 12 20 9 9 -3 14 1 14 12 0 9 4
13 10 10 5 -3 18 -1 27 4 14 8 15 10 3 11 -13 0 -13 2 0 9 8 6 18 7 22 5 4 -3
8 0 8 6 0 6 4 9 9 5 5 -3 12 -1 16 5 4 6 11 7 17 4 8 -5 9 -1 4 11 -5 15 -4
16 9 5 12 -10 15 -10 15 1 0 11 2 11 10 -1 7 -11 10 -11 10 -2 0 10 3 10 14 0
8 -7 12 -16 10 -20 -2 -4 0 -9 6 -13 7 -4 6 -13 -1 -27 -6 -12 -7 -18 -1 -14
5 3 12 -1 16 -9 3 -8 0 -15 -7 -15 -9 0 -8 -3 1 -9 8 -4 13 -11 13 -15 -4 -26
0 -56 7 -52 4 2 8 -4 8 -15 0 -10 -4 -19 -9 -19 -5 0 -4 -7 3 -15 7 -8 10 -22
6 -30 -3 -10 1 -15 12 -16 11 0 12 -2 4 -6 -10 -4 -10 -8 0 -21 11 -13 11 -14
-2 -7 -13 7 -13 6 -2 -7 7 -9 14 -35 15 -57 1 -23 4 -41 7 -41 4 0 7 -7 7 -15
0 -8 -4 -12 -9 -9 -4 3 -8 0 -8 -5 0 -6 5 -11 11 -11 8 0 7 -6 -2 -17 -11 -13
-11 -15 -1 -9 10 6 12 1 9 -21 -2 -15 0 -34 6 -40 6 -8 6 -13 0 -13 -5 0 -8
-14 -5 -30 2 -17 9 -30 14 -30 5 0 7 -3 5 -8 -3 -4 3 -24 13 -45 10 -20 14
-35 9 -31 -5 3 -9 0 -9 -5 0 -6 5 -11 12 -11 6 0 9 -3 5 -6 -3 -4 2 -14 11
-23 12 -11 13 -13 2 -7 -8 5 -3 -3 12 -17 15 -14 24 -28 21 -31 -3 -3 2 -8 11
-12 9 -3 14 -10 11 -14 -3 -4 2 -10 10 -14 8 -3 15 -13 15 -23 0 -15 2 -16 10
-3 8 13 10 12 10 -3 0 -10 11 -29 25 -43 14 -14 25 -29 25 -34 0 -6 7 -10 15
-10 8 0 15 -4 15 -10 0 -5 7 -10 16 -10 8 0 13 -4 10 -9 -3 -4 13 -16 35 -26
22 -10 43 -25 48 -32 4 -8 17 -15 28 -16 12 0 19 -5 17 -9 -3 -4 0 -8 6 -8 6
0 8 -4 5 -10 -3 -5 1 -10 11 -10 9 0 25 -10 35 -22 11 -11 19 -16 19 -9 0 9 5
8 15 -3 8 -8 15 -19 15 -24 0 -6 9 -8 20 -5 11 3 20 1 20 -5 0 -5 14 -15 30
-21 17 -5 30 -15 30 -21 0 -6 5 -8 10 -5 6 3 10 -2 11 -12 0 -10 3 -13 6 -6 6
15 25 -1 36 -30 4 -10 11 -16 16 -12 5 3 12 1 16 -5 4 -6 11 -8 16 -5 5 4 9 1
9 -5 0 -17 27 -41 42 -38 7 2 12 -3 10 -10 -1 -8 2 -11 8 -7 5 3 13 -1 16 -9
3 -9 13 -16 21 -16 8 0 11 -4 8 -10 -3 -6 1 -7 9 -4 9 3 16 1 16 -5 0 -6 7
-11 15 -11 8 0 15 -5 15 -11 0 -5 4 -8 9 -4 5 3 16 -2 24 -10 9 -8 23 -15 32
-15 9 0 13 -4 10 -10 -3 -5 5 -15 19 -21 14 -7 23 -16 20 -20 -2 -4 4 -13 15
-18 10 -6 21 -18 25 -26 4 -11 2 -14 -6 -9 -7 4 -8 3 -4 -4 4 -7 14 -12 22
-12 9 0 14 -7 12 -18 -2 -9 2 -16 7 -15 6 1 12 -7 13 -18 4 -42 6 -48 14 -43
4 3 9 0 9 -5 3 -21 4 -26 12 -38 5 -8 4 -13 -3 -13 -6 0 -8 -5 -5 -10 4 -6 11
-7 17 -4 6 4 5 -3 -2 -16 -7 -12 -8 -20 -3 -17 5 3 9 -16 8 -43 0 -26 -3 -46
-6 -44 -4 2 -9 -5 -12 -16 -3 -10 0 -21 7 -24 8 -3 8 -7 0 -13 -6 -4 -10 -20
-8 -35 1 -16 -1 -28 -5 -28 -5 0 -7 -13 -5 -30 2 -16 -1 -32 -7 -36 -8 -4 -7
-9 2 -15 11 -7 9 -9 -6 -9 -14 0 -16 -3 -8 -11 14 -14 5 -51 -11 -42 -8 4 -8
3 0 -6 11 -12 10 -20 -14 -91 -3 -8 -4 -19 -3 -24 1 -5 -5 -6 -14 -2 -11 4
-14 2 -8 -7 11 -18 13 -38 2 -31 -5 3 -9 -6 -9 -20 0 -14 -6 -26 -12 -26 -9 0
-8 -4 2 -10 13 -8 12 -10 -3 -10 -15 0 -16 -3 -7 -20 8 -16 8 -20 -2 -18 -8 2
-12 -4 -10 -15 2 -9 -2 -17 -8 -17 -6 0 -8 -4 -5 -10 3 -5 1 -10 -5 -10 -6 0
-9 -4 -5 -9 3 -5 -6 -22 -19 -36 -15 -16 -22 -33 -19 -42 4 -11 2 -14 -5 -9
-7 4 -12 2 -12 -3 0 -6 0 -13 0 -16 0 -3 -8 -14 -17 -24 -38 -41 -48 -56 -45
-65 2 -4 -4 -6 -13 -3 -8 4 -15 3 -15 -1 0 -15 -41 -52 -51 -47 -5 4 -9 1 -9
-5 0 -6 -4 -8 -10 -5 -5 3 -10 1 -10 -4 0 -6 -11 -11 -24 -11 -14 0 -28 -5
-32 -11 -4 -8 -9 -7 -15 2 -7 11 -9 10 -9 -4 0 -10 -5 -15 -10 -12 -6 4 -17 1
-25 -5 -8 -6 -18 -9 -23 -7 -4 3 -14 2 -22 -3 -9 -5 -19 -5 -27 2 -9 7 -13 7
-13 -1 0 -7 -4 -10 -9 -7 -5 4 -12 0 -14 -6 -4 -10 -6 -10 -6 0 -1 9 -11 6
-33 -9 -18 -14 -28 -17 -24 -8 4 7 1 6 -8 -5 -9 -10 -20 -15 -27 -10 -9 5 -10
2 -6 -10 4 -9 3 -14 -2 -11 -5 3 -12 1 -16 -5 -4 -6 -11 -8 -16 -5 -5 4 -12
-1 -15 -10 -6 -13 -8 -14 -15 -3 -7 10 -9 9 -9 -5 0 -10 -4 -16 -9 -13 -5 3
-12 -1 -15 -10 -3 -8 -11 -12 -17 -8 -8 4 -9 3 -5 -4 4 -7 2 -12 -4 -12 -6 0
-8 -5 -5 -10 4 -6 3 -10 -2 -9 -15 4 -43 -13 -37 -22 3 -5 -4 -9 -15 -9 -14 0
-23 -9 -27 -25 -3 -14 -10 -22 -15 -19 -5 3 -9 -2 -9 -11 0 -10 -5 -13 -12 -9
-9 5 -9 2 1 -9 9 -11 10 -17 2 -17 -6 0 -11 -9 -11 -21 0 -11 5 -17 10 -14 6
3 10 -1 10 -10 0 -9 4 -13 10 -10 6 3 10 -2 10 -11 0 -10 3 -14 7 -11 3 4 12
2 20 -4 10 -9 13 -7 14 7 0 18 1 18 9 -1 5 -11 9 -14 9 -7 1 6 5 12 11 12 5 0
7 -7 3 -16 -5 -14 -3 -15 17 -4 13 7 20 8 16 1 -4 -6 4 -9 24 -6 18 2 30 -1
30 -8 0 -7 4 -6 10 3 9 13 10 13 10 0 0 -13 1 -13 10 0 5 8 10 10 10 3 0 -6
11 -10 25 -8 14 1 25 -1 25 -4 0 -4 15 -6 33 -6 17 1 43 -2 57 -5 14 -4 34 -4
45 0 11 4 32 4 48 -1 15 -4 27 -5 27 -1 0 4 36 7 79 8 51 0 77 -4 74 -10 -4
-5 7 0 24 12 20 14 34 18 38 12 4 -6 12 -4 22 5 11 12 19 13 28 5 10 -8 16 -8
22 2 4 7 13 13 18 14 23 3 55 17 55 25 0 5 9 9 21 9 11 0 17 4 14 10 -3 6 1 7
9 4 9 -3 16 -1 16 6 0 6 4 9 9 5 5 -3 12 -1 16 5 4 6 11 8 16 5 5 -4 9 -1 9 5
0 7 6 10 12 8 7 -3 21 5 31 16 10 12 15 14 11 6 -7 -15 20 11 46 45 13 17 13
18 0 10 -10 -5 -9 -1 3 13 11 12 16 26 11 33 -4 7 -3 10 3 6 6 -4 14 4 17 18
4 14 11 23 16 20 6 -3 7 1 4 9 -4 9 1 18 10 22 9 3 13 10 10 15 -3 5 1 9 8 9
9 0 9 3 -2 10 -10 6 -11 10 -2 10 6 0 12 8 12 17 0 9 3 13 7 10 7 -8 38 52 34
67 -3 14 20 36 31 30 6 -4 5 3 -1 15 -10 18 -9 20 6 14 10 -3 15 -3 11 2 -4 4
2 21 14 38 13 19 16 28 7 23 -7 -4 -6 -1 3 7 10 8 15 17 11 20 -3 4 -1 7 6 7
7 0 9 5 6 10 -3 6 -1 10 5 10 6 0 9 4 6 9 -3 5 1 12 10 15 8 3 14 14 12 23 -2
11 2 17 10 15 8 -1 11 2 7 8 -3 5 -2 10 3 10 6 0 8 9 5 20 -4 14 0 20 12 20
11 0 15 5 12 14 -3 8 1 17 9 20 8 3 14 13 14 23 1 24 25 55 36 45 4 -4 2 2 -6
12 -8 11 -10 17 -5 14 6 -4 17 2 24 14 10 16 10 19 -1 13 -7 -3 -6 -1 3 7 9 7
18 18 20 23 2 6 7 9 11 8 4 -2 5 4 2 12 -4 8 1 17 10 21 9 3 16 10 16 16 0 5
-6 6 -12 2 -10 -6 -10 -5 -1 8 7 8 11 18 8 21 -3 4 -2 5 2 2 9 -7 32 27 33 48
0 10 5 15 10 12 10 -6 14 7 10 34 -1 9 4 12 14 8 9 -4 15 -3 14 1 -3 14 14 62
22 62 4 0 11 11 14 25 4 14 11 25 16 25 6 0 15 12 20 26 6 15 14 22 22 18 7
-4 8 -3 4 4 -4 7 -2 12 3 12 6 0 10 6 9 13 -2 6 2 11 8 10 7 -1 11 5 10 15 0
10 5 16 13 14 12 -3 12 -1 1 13 -11 13 -11 18 -1 24 10 7 9 9 -2 14 -10 3 -13
14 -10 31 3 16 1 26 -6 26 -7 0 -10 4 -6 9 3 5 -1 16 -10 24 -8 8 -16 21 -17
28 -2 8 -11 20 -20 27 -10 7 -18 18 -18 23 0 6 -7 17 -15 26 -8 8 -13 18 -10
23 3 5 -4 11 -14 15 -12 4 -18 12 -14 21 3 9 -2 14 -17 14 -11 0 -18 4 -15 10
3 5 -5 21 -19 35 -14 14 -22 25 -18 25 4 0 -1 5 -11 11 -13 8 -15 14 -7 23 7
10 6 17 -5 26 -12 10 -13 16 -4 27 9 11 9 12 -4 7 -12 -4 -15 -1 -12 15 2 12
0 21 -5 21 -5 0 -6 7 -3 17 4 10 2 14 -5 9 -6 -3 -14 -1 -18 5 -4 8 -3 9 4 5
16 -10 15 16 0 33 -11 11 -10 12 2 6 8 -5 4 4 -10 20 -14 16 -20 25 -13 21 13
-7 15 35 2 44 -5 3 -9 26 -10 50 -2 25 -7 48 -13 52 -7 6 -6 11 4 18 12 7 12
10 1 10 -7 0 -11 6 -7 15 3 8 0 15 -7 15 -8 0 -6 4 3 10 8 5 10 10 4 10 -7 0
-15 7 -18 16 -6 15 -4 15 10 3 16 -13 16 -12 4 11 -8 14 -15 38 -17 54 -2 17
-9 34 -16 38 -9 6 -8 8 3 8 13 0 13 1 0 10 -13 9 -13 10 0 10 13 0 13 1 0 11
-11 8 -12 12 -2 16 6 2 9 10 6 15 -4 7 -2 8 5 4 6 -4 9 -11 6 -16 -3 -5 4 -11
15 -15 12 -4 20 -15 20 -28 0 -15 3 -18 9 -9 6 10 11 9 22 -4 12 -15 12 -17 0
-9 -10 5 -12 4 -7 -3 4 -7 13 -12 19 -12 7 0 19 -9 27 -20 8 -11 20 -20 28
-20 7 0 11 -4 7 -9 -3 -5 4 -12 15 -16 11 -3 20 -11 20 -16 0 -6 5 -7 10 -4 6
3 10 1 10 -4 0 -6 8 -11 18 -12 14 0 14 -2 -3 -9 -18 -8 -17 -9 8 -9 16 -1 26
-4 24 -9 -6 -9 19 -33 27 -25 3 4 6 -1 6 -11 0 -9 3 -15 8 -13 10 7 32 -19 24
-27 -3 -4 1 -4 9 -1 11 4 18 -1 22 -14 4 -15 10 -19 23 -14 12 4 15 3 10 -5
-4 -8 -2 -10 7 -6 9 3 16 -3 20 -15 3 -13 13 -21 27 -21 11 0 19 -4 16 -8 -2
-4 9 -14 25 -21 18 -8 26 -17 22 -24 -4 -8 -1 -7 9 1 13 10 17 10 22 -3 3 -8
17 -20 31 -25 14 -5 25 -14 25 -20 0 -5 9 -10 20 -10 11 0 20 -5 20 -11 0 -5
5 -7 10 -4 6 3 10 1 10 -4 0 -6 7 -11 15 -11 8 0 15 -4 15 -10 0 -5 8 -6 18
-3 15 6 16 5 2 -12 -8 -10 -10 -16 -4 -12 13 8 57 -27 47 -37 -3 -3 1 -6 10
-6 11 0 17 -8 17 -22 0 -19 2 -20 10 -8 9 13 10 13 10 0 0 -9 9 -23 20 -33 12
-10 18 -23 14 -29 -4 -7 -3 -8 4 -4 6 3 16 -3 22 -14 6 -11 7 -20 3 -20 -4 0
2 -7 13 -16 10 -8 12 -12 4 -8 -13 7 -13 5 -1 -9 7 -9 18 -14 25 -10 6 4 4 -2
-4 -12 -12 -15 -12 -17 -1 -10 11 6 13 4 8 -9 -4 -10 -3 -15 3 -11 6 3 10 -5
10 -19 0 -14 4 -26 8 -26 10 0 11 -6 14 -67 1 -23 6 -40 9 -37 4 2 9 -3 12
-11 4 -10 1 -12 -10 -8 -13 5 -14 3 -3 -17 6 -12 10 -31 7 -41 -3 -10 0 -22 5
-26 7 -4 8 -1 3 7 -5 9 -4 11 4 6 9 -6 9 -11 0 -22 -11 -13 -6 -18 16 -15 6 1
2 -5 -8 -13 -13 -10 -15 -15 -5 -18 10 -4 10 -9 -2 -23 -14 -17 -13 -18 2 -12
13 4 16 2 11 -11 -3 -9 -11 -23 -17 -31 -8 -11 -8 -13 1 -8 6 4 14 3 18 -3 3
-5 1 -10 -5 -10 -8 0 -7 -6 1 -22 10 -18 9 -20 -7 -14 -17 7 -17 6 0 -13 13
-15 14 -20 4 -24 -10 -4 -10 -6 0 -6 6 -1 12 -5 12 -11 0 -5 -8 -6 -17 -3 -17
7 -17 6 0 -11 9 -10 15 -22 11 -27 -3 -6 -1 -16 6 -24 8 -10 8 -15 -1 -21 -8
-5 -9 -3 -4 6 5 8 4 11 -3 7 -5 -4 -8 -16 -5 -27 3 -11 10 -17 16 -13 6 4 7 1
1 -8 -13 -21 -13 -89 0 -89 8 0 8 -3 0 -8 -13 -9 -13 -105 0 -114 7 -5 7 -8
-2 -8 -8 0 -10 -8 -6 -26 5 -19 3 -25 -4 -20 -13 8 -5 -21 11 -42 7 -9 6 -11
-6 -6 -14 5 -15 1 -7 -25 5 -18 5 -31 0 -31 -5 0 -6 -7 -3 -17 5 -12 3 -14 -8
-8 -12 8 -12 6 0 -9 12 -14 12 -19 2 -26 -10 -5 -10 -9 -2 -15 7 -4 8 -12 3
-18 -10 -14 -10 -27 1 -44 6 -9 3 -11 -10 -6 -15 6 -16 4 -5 -9 8 -11 9 -18 3
-22 -7 -4 -7 -15 -1 -31 7 -19 6 -23 -5 -18 -18 6 -19 -8 -2 -26 9 -11 9 -13
0 -7 -7 4 -14 2 -14 -3 -2 -17 -8 -35 -30 -89 -5 -13 -7 -28 -4 -33 4 -5 1 -9
-5 -9 -6 0 -8 -4 -5 -10 3 -5 2 -10 -4 -10 -5 0 -8 -9 -6 -21 4 -18 2 -19 -12
-7 -12 9 -15 9 -9 0 4 -6 2 -12 -3 -12 -6 0 -10 -3 -10 -8 5 -29 -3 -42 -25
-42 -14 0 -28 -5 -31 -10 -3 -6 -17 -10 -31 -10 -13 0 -24 -4 -24 -10 0 -5 -9
-10 -20 -10 -11 0 -20 -5 -20 -11 0 -6 -7 -9 -15 -5 -8 3 -15 1 -15 -4 0 -6
-8 -10 -18 -10 -10 0 -28 -9 -40 -20 -12 -11 -29 -20 -38 -20 -10 0 -14 -5
-11 -14 4 -10 1 -13 -9 -9 -9 3 -14 -1 -14 -12 0 -15 -2 -15 -16 -5 -8 8 -14
9 -13 4 4 -21 -2 -35 -11 -29 -5 3 -10 1 -10 -5 0 -18 -36 -60 -44 -52 -4 3
-4 -2 0 -12 6 -15 4 -17 -7 -11 -12 7 -12 6 -1 -7 10 -13 10 -17 -3 -22 -8 -3
-15 -9 -14 -13 4 -26 -2 -43 -13 -37 -9 5 -9 2 1 -9 7 -9 9 -17 4 -17 -5 0
-10 -20 -12 -45 -2 -38 3 -49 27 -73 24 -23 36 -28 75 -26 29 1 45 -2 41 -8
-4 -7 0 -7 12 -1 11 5 40 11 65 12 61 3 71 5 88 15 10 7 12 5 6 -3 -6 -10 -3
-11 13 -2 27 14 35 14 26 -1 -6 -10 -4 -10 7 -1 7 7 33 13 57 13 30 0 41 3 36
12 -5 7 -3 8 7 3 7 -5 22 -10 31 -10 14 -1 15 1 6 12 -9 11 -6 12 16 4 15 -6
26 -7 26 -1 0 5 8 9 18 9 46 2 62 6 62 14 0 6 5 5 13 0 15 -12 61 9 49 23 -4
4 1 2 11 -5 9 -7 17 -9 17 -3 0 15 43 23 52 9 5 -8 8 -6 8 6 0 10 5 15 10 12
6 -4 16 -2 23 3 7 5 20 8 30 7 9 -2 17 1 17 6 0 6 4 8 9 4 5 -3 12 -1 16 5 4
6 11 8 16 5 5 -4 12 1 15 9 3 9 17 16 30 16 13 0 24 5 24 11 0 5 3 8 8 6 10
-7 32 19 24 29 -4 4 1 4 10 1 11 -4 17 -2 15 6 -1 7 6 11 15 11 10 -1 15 2 12
7 -7 11 21 51 29 43 4 -4 5 3 2 14 -2 14 1 19 9 16 7 -3 13 2 13 10 0 8 -3 13
-7 11 -4 -2 -7 2 -7 10 0 8 4 12 9 9 4 -3 6 9 4 25 -2 17 1 28 6 25 5 -3 7 6
4 20 -2 14 1 27 7 30 8 3 7 8 -3 15 -12 9 -13 11 -1 11 8 0 11 3 8 7 -4 3 -1
13 6 21 9 13 9 14 -1 8 -6 -4 -12 -2 -12 3 0 6 5 11 11 11 5 0 7 5 4 10 -3 5
0 10 7 10 8 0 9 3 3 8 -12 9 -12 58 0 69 4 4 5 3 1 -4 -3 -6 -3 -14 2 -17 4
-2 8 6 8 19 0 13 -4 21 -9 18 -5 -3 -4 4 2 15 6 11 11 32 11 47 0 15 4 24 10
20 6 -3 7 1 4 10 -4 8 0 23 7 32 12 14 12 16 0 8 -11 -6 -13 -4 -8 9 4 10 7
24 7 32 0 10 5 12 13 8 9 -6 9 -4 -1 8 -9 11 -10 18 -2 23 7 4 7 13 -1 27 -8
15 -8 19 0 14 6 -4 11 -4 12 1 4 60 12 99 22 112 9 12 9 13 0 7 -7 -4 -13 -2
-13 3 0 6 6 11 13 11 8 0 7 4 -3 10 -9 6 -10 10 -3 10 6 0 12 8 12 17 0 10 3
41 6 68 4 28 7 58 8 68 1 9 5 17 10 17 5 0 4 6 -2 14 -9 11 -9 16 0 22 8 5 10
3 4 -7 -5 -8 -4 -10 0 -6 11 10 16 39 6 32 -4 -2 -8 2 -8 10 0 8 3 12 7 10 4
-2 8 13 9 33 2 49 5 64 15 81 5 8 3 17 -5 22 -12 8 -12 11 1 19 9 6 14 21 12
40 -2 20 1 30 10 30 10 0 9 3 -2 10 -8 5 -10 10 -4 10 6 0 11 6 12 13 0 6 4
28 7 47 4 19 7 41 7 48 1 6 5 12 10 12 5 0 6 5 3 10 -4 6 1 22 10 37 9 14 12
22 6 19 -6 -4 -11 -2 -11 3 0 6 5 11 11 11 5 0 7 5 3 12 -5 8 -2 9 11 4 16 -6
16 -4 4 10 -11 14 -11 18 -1 21 6 3 10 9 6 14 -3 5 0 9 7 9 8 0 7 5 -2 17 -11
13 -11 15 -1 9 9 -6 12 -3 10 10 -2 11 2 18 8 17 6 -1 11 4 11 12 0 8 -5 12
-11 9 -6 -3 -3 1 6 9 10 8 15 17 11 20 -3 4 -1 12 4 19 6 7 9 21 8 31 -2 9 1
17 6 17 6 0 8 4 5 9 -4 5 0 12 6 14 10 4 9 6 -1 6 -10 1 -11 4 -2 15 14 17 17
95 5 105 -5 3 -10 13 -12 21 -2 8 -8 17 -13 18 -5 2 -9 12 -9 23 0 10 -5 18
-12 17 -6 -2 -17 7 -23 19 -7 13 -14 21 -17 18 -3 -3 -13 5 -24 17 -19 22 -19
23 1 9 11 -8 8 -3 -7 12 -15 15 -33 27 -39 27 -7 0 -10 3 -6 6 8 8 -32 46 -43
39 -5 -3 -7 4 -5 15 2 13 -1 20 -11 20 -8 0 -12 5 -9 10 3 5 -1 10 -10 10 -9
0 -13 5 -10 10 3 6 -1 10 -9 10 -9 0 -16 7 -16 16 0 8 -5 12 -10 9 -6 -3 -10
1 -10 9 0 8 -9 20 -20 26 -11 6 -20 18 -20 26 0 8 -4 12 -10 9 -5 -3 -10 1
-10 9 0 9 -4 16 -10 16 -5 0 -10 4 -10 10 0 5 -11 21 -26 35 -14 14 -22 30
-18 37 4 6 3 9 -2 6 -5 -3 -18 4 -29 15 -12 11 -14 17 -5 13 8 -4 5 1 -7 12
-13 11 -23 25 -23 31 0 5 -6 14 -13 18 -6 4 -19 22 -27 38 -8 17 -23 41 -35
54 -11 13 -14 21 -7 17 6 -4 12 -2 12 3 0 6 -4 11 -8 11 -5 0 -9 7 -10 15 -1
8 -3 22 -4 30 -1 8 -5 15 -10 15 -4 0 -8 5 -8 11 0 5 4 8 9 4 5 -3 13 0 17 6
5 8 3 9 -6 4 -9 -6 -12 -4 -8 7 4 8 2 21 -2 29 -5 8 -4 19 2 26 8 10 7 13 -3
13 -11 0 -11 2 1 10 11 7 11 10 2 10 -7 0 -11 4 -8 8 2 4 1 14 -4 21 -4 8 -4
27 0 43 5 17 5 26 -1 23 -15 -10 -10 7 9 28 9 11 12 17 5 14 -6 -4 -14 -3 -18
2 -3 5 3 14 12 20 10 6 12 11 6 11 -15 0 -18 30 -4 30 5 0 8 11 7 24 -2 15 3
27 11 31 9 3 13 12 9 20 -3 9 1 18 9 21 8 4 15 17 15 31 0 15 4 22 11 17 8 -4
9 1 4 16 -5 16 -4 20 5 15 7 -4 10 -1 8 11 -2 12 2 18 10 16 8 -1 11 2 8 7 -3
5 1 14 9 21 12 10 13 16 3 28 -10 13 -10 14 0 8 7 -4 12 -1 12 9 0 9 5 13 10
10 6 -4 10 5 10 19 0 14 4 26 10 26 5 0 7 7 4 15 -4 8 1 17 10 21 9 3 16 10
16 16 0 5 -6 6 -12 3 -7 -4 -5 0 4 8 10 8 15 17 11 20 -3 4 -1 7 6 7 7 0 9 5
6 10 -3 6 -1 10 6 10 7 0 9 3 6 7 -4 3 -2 12 3 19 6 6 9 18 8 25 -2 7 2 13 9
14 6 0 15 4 20 9 5 5 3 6 -4 2 -18 -10 -16 -2 7 39 11 20 15 33 8 29 -9 -6 -9
-3 1 9 7 9 10 17 7 17 -4 0 -1 6 7 14 8 8 13 30 11 52 -1 22 0 33 3 27 8 -21
22 -15 18 7 -2 11 0 20 5 20 5 0 6 7 3 17 -5 12 -3 14 8 8 12 -7 12 -6 1 7
-10 12 -9 18 3 28 12 10 13 16 4 26 -9 11 -8 14 0 14 7 0 9 5 6 10 -4 6 -1 17
5 25 10 12 10 15 -1 15 -9 0 -10 3 -4 8 6 4 12 25 14 47 2 22 8 43 14 47 8 5
7 8 -3 8 -13 0 -13 1 0 10 13 9 13 10 0 10 -13 0 -13 2 -1 9 11 7 12 13 3 23
-7 10 -8 18 -2 24 6 6 11 22 12 37 1 14 8 29 16 32 8 3 10 0 6 -8 -6 -9 -4 -9
8 1 10 8 19 9 22 3 5 -7 41 -8 41 0 0 2 147 10 188 10 9 0 17 4 17 10 0 5 5 9
11 9 5 0 7 -5 3 -11 -4 -8 0 -8 15 0 16 9 21 9 21 -1 1 -7 8 -2 16 12 8 14 13
18 10 9 -3 -13 2 -16 19 -15 13 0 21 5 17 10 -3 5 2 7 10 3 9 -3 21 0 28 6 8
7 10 7 7 1 -3 -6 0 -11 8 -11 8 0 12 4 9 9 -5 7 23 11 79 11 9 0 17 3 17 7 0
5 11 7 25 5 14 -1 25 2 25 7 0 5 6 8 13 7 30 -4 48 2 41 13 -4 6 -3 8 3 5 10
-6 60 7 96 25 10 5 22 6 27 3 6 -4 10 -2 10 3 0 6 7 13 16 16 15 6 15 4 3 -10
-13 -16 -12 -16 8 -4 12 8 19 18 17 22 -5 7 9 12 28 10 3 -1 12 5 18 13 7 8
18 15 25 15 7 0 18 7 25 15 7 9 15 13 18 11 2 -3 11 2 19 10 8 8 18 12 23 9 5
-3 12 0 16 6 5 8 2 10 -7 5 -8 -4 -5 0 6 8 11 9 25 14 33 11 7 -2 10 0 7 5 -3
6 2 13 12 17 23 9 43 29 38 37 -3 3 0 2 6 -3 12 -10 49 21 49 42 0 8 4 7 10
-3 8 -13 10 -13 10 2 0 9 5 20 12 24 7 4 8 3 4 -4 -5 -8 -2 -10 8 -6 9 3 14
11 13 17 -1 6 4 11 10 12 7 0 24 11 38 25 14 14 38 36 52 50 14 14 30 24 35
22 5 -1 7 1 4 6 -6 10 30 43 38 35 6 -6 10 12 7 30 0 4 7 7 16 7 14 0 15 2 4
9 -11 7 -9 10 8 16 12 3 19 10 16 15 -3 4 2 11 11 14 8 3 12 10 9 16 -3 5 -1
10 4 10 6 0 11 5 11 11 0 7 10 21 23 33 13 12 21 28 19 35 -3 8 0 11 7 7 6 -4
11 -2 11 3 0 27 20 52 35 43 6 -2 5 1 -1 7 -9 10 -6 19 12 38 13 14 24 32 24
39 0 7 7 20 16 28 9 10 11 16 4 16 -7 0 -5 6 4 15 8 9 12 23 9 32 -4 11 -3 14
6 9 8 -6 11 -2 9 10 -2 11 2 18 7 17 6 -1 12 10 13 25 1 14 6 28 10 31 4 3 7
13 7 21 -1 8 3 20 8 27 5 7 6 17 2 23 -3 5 -2 10 4 10 6 0 8 6 5 14 -3 8 0 17
6 21 9 6 9 10 -1 16 -11 7 -10 9 3 9 11 0 15 5 12 15 -4 9 0 15 7 15 12 0 12
2 0 9 -9 6 -10 11 -2 15 6 4 11 21 11 37 0 19 4 28 11 23 8 -4 8 0 0 15 -11
20 -8 25 12 22 5 -1 5 4 1 11 -5 7 -9 19 -10 26 -2 11 0 11 13 0 15 -12 15
-11 4 10 -9 17 -9 22 1 22 10 0 10 2 -1 9 -9 6 -10 10 -2 12 6 2 13 25 14 49
2 25 5 50 8 55 3 6 4 36 4 68 0 31 2 57 5 57 3 0 6 81 6 179 0 112 -4 178 -9
174 -6 -4 -7 -1 -1 8 12 19 12 30 1 53 -6 13 -6 16 2 12 14 -9 14 -4 1 28 -7
19 -6 26 3 26 8 0 7 4 -3 10 -11 7 -11 10 -2 10 7 0 10 5 7 10 -4 6 -12 7 -18
3 -8 -4 -7 -1 1 9 10 12 11 22 3 35 -5 11 -6 25 -1 33 5 8 6 18 3 24 -6 10
-15 84 -14 122 0 12 -6 27 -14 34 -8 7 -15 18 -15 24 0 6 5 4 10 -4 6 -9 10
-10 10 -3 0 6 -5 15 -11 19 -6 3 -9 15 -6 25 3 11 1 19 -4 19 -5 0 -9 15 -9
33 0 18 -6 39 -12 46 -11 11 -10 12 2 6 12 -6 13 -5 3 6 -17 17 -17 32 0 24 6
-4 3 1 -7 9 -14 11 -15 16 -6 16 9 0 8 4 -5 13 -13 10 -15 16 -6 21 9 6 9 11
1 21 -6 7 -12 29 -13 49 -1 20 -6 36 -10 36 -5 0 -7 15 -6 33 2 18 -1 39 -5
46 -6 9 -5 12 2 7 13 -8 35 28 24 39 -4 5 -1 5 6 1 11 -7 17 5 13 28 -1 5 5 6
13 3 9 -4 15 -3 14 1 -4 18 15 61 25 55 6 -4 8 0 4 10 -4 10 -1 17 6 17 8 0 8
3 -2 9 -9 6 -10 11 -2 15 6 4 14 5 19 3 6 -4 7 31 3 76 -1 4 -8 7 -16 7 -8 0
-15 4 -15 8 0 4 -9 8 -20 9 -11 1 -27 9 -36 18 -9 9 -29 19 -45 22 -18 3 -29
12 -29 22 0 14 -2 14 -10 1 -7 -11 -10 -12 -10 -2 0 8 -5 12 -12 10 -17 -6
-49 29 -42 47 4 8 14 15 23 15 14 0 14 2 1 10 -10 6 -11 10 -2 10 6 0 12 5 12
11 0 7 8 18 18 26 9 8 11 12 5 8 -7 -3 -13 -1 -13 5 0 6 7 13 16 17 8 3 13 12
10 20 -3 7 1 16 9 19 8 4 15 15 15 26 0 10 3 17 8 14 4 -2 8 9 8 25 1 23 -2
29 -13 25 -8 -3 -11 -1 -8 4 3 6 0 10 -7 10 -10 0 -9 3 2 11 12 9 11 10 -7 6
-16 -4 -23 0 -23 10 0 8 -4 12 -9 8 -5 -3 -16 1 -24 9 -8 8 -17 12 -21 9 -3
-3 -8 2 -12 11 -3 9 -10 13 -15 10 -5 -3 -23 5 -41 17 -17 13 -28 18 -24 11 4
-7 2 -12 -3 -12 -6 0 -11 4 -11 9 0 5 -11 8 -25 7 -13 -2 -22 0 -19 5 2 4 -8
7 -23 5 -16 -1 -34 2 -42 8 -16 13 -43 17 -36 6 4 -7 -17 -7 -35 0 -3 1 -8 2
-12 1 -5 0 -8 3 -8 8 0 5 -9 11 -21 14 -12 3 -18 10 -14 16 3 6 -1 11 -9 11
-9 0 -16 5 -16 11 0 5 -4 7 -10 4 -5 -3 -10 1 -10 10 0 8 -9 19 -19 23 -11 4
-21 12 -21 17 -1 6 -6 9 -11 7 -5 -1 -8 2 -7 7 3 9 -79 81 -94 81 -5 0 -6 6
-2 13 6 9 4 9 -8 -1 -13 -10 -18 -10 -24 -1 -5 8 -3 10 7 4 8 -4 5 1 -6 12
-11 12 -22 21 -25 21 -22 0 -30 3 -26 11 3 5 -2 8 -12 7 -9 0 -16 4 -15 10 1
7 -6 10 -20 7 -18 -4 -19 -3 -7 6 13 9 12 11 -3 11 -21 0 -49 24 -40 34 4 3 0
6 -7 6 -7 0 -11 3 -7 6 3 4 1 12 -6 20 -35 39 -37 42 -24 47 7 3 4 6 -5 6 -10
1 -18 8 -18 16 0 8 -4 15 -10 15 -5 0 -10 7 -10 15 0 8 -4 15 -9 15 -5 0 -13
9 -16 20 -3 11 -11 20 -16 20 -15 0 -39 26 -32 34 4 3 -1 6 -10 6 -10 0 -17 5
-17 11 0 5 -4 7 -10 4 -5 -3 -10 1 -10 10 0 9 -4 14 -8 11 -5 -3 -23 4 -40 14
-22 13 -32 16 -32 7 0 -6 -18 -27 -40 -46 -24 -20 -39 -40 -36 -48 3 -8 1 -11
-5 -8 -5 4 -17 1 -25 -6 -9 -8 -18 -9 -22 -3 -7 9 -33 15 -65 15 -9 0 -15 4
-13 8 3 4 -12 8 -32 9 -20 2 -39 6 -42 10 -3 4 -17 13 -32 21 -16 8 -28 21
-28 30 0 14 -2 14 -10 1 -8 -13 -10 -12 -10 3 0 13 -6 17 -25 14 -13 -1 -28
-7 -32 -12 -5 -4 -2 -5 6 0 9 5 12 4 8 -2 -8 -13 -90 -9 -95 5 -3 9 -9 9 -24
1 -12 -6 -18 -7 -14 -1 7 11 -21 25 -35 16 -5 -3 -9 -1 -9 5 0 5 -12 8 -26 5
-14 -3 -23 -1 -20 5 4 5 -3 7 -16 3 -16 -4 -19 -2 -13 9 7 11 5 11 -10 -1 -20
-17 -22 -17 -52 12 -20 19 -23 19 -29 5 -5 -15 -8 -15 -21 -1 -11 11 -19 12
-28 4 -8 -7 -15 -7 -19 -1 -3 5 -14 8 -24 6 -9 -1 -23 2 -29 8 -9 6 -13 6 -13
-2 0 -7 -8 -8 -22 -2 -13 4 -29 6 -37 3 -8 -2 -11 0 -7 6 7 11 -12 11 -31 -1
-6 -4 -14 -3 -18 3 -7 11 -33 9 -52 -3 -8 -5 -13 -3 -13 3 0 7 -6 8 -19 0 -14
-7 -20 -7 -23 2 -3 8 -10 8 -27 -2 -13 -6 -21 -8 -17 -2 3 6 -4 9 -18 8 -13 0
-23 -3 -21 -6 2 -3 -29 -7 -68 -8 -42 -2 -74 -8 -79 -15 -6 -9 -8 -8 -8 3 0
13 -1 13 -10 0 -9 -13 -10 -13 -10 0 -1 12 -3 11 -11 -3 -8 -14 -14 -16 -25
-6 -11 9 -14 8 -15 -7 0 -12 -3 -14 -6 -6 -4 10 -8 10 -19 1 -11 -9 -14 -8
-14 2 0 8 -6 6 -16 -7 -15 -19 -16 -19 -10 1 5 18 5 18 -7 4 -14 -19 -63 -37
-53 -20 5 7 1 9 -8 5 -9 -3 -14 -10 -11 -14 6 -10 -42 -23 -55 -15 -6 4 -10 1
-10 -4 0 -6 -5 -11 -11 -11 -5 0 -7 6 -4 13 4 6 0 4 -8 -5 -8 -10 -17 -15 -20
-11 -4 3 -13 1 -20 -5 -8 -7 -17 -9 -20 -5 -4 3 -7 2 -7 -4 0 -6 -14 -13 -31
-17 -17 -3 -28 -10 -24 -16 3 -5 2 -10 -4 -10 -5 0 -12 6 -14 13 -3 6 -6 3 -6
-8 -1 -17 -3 -17 -11 -5 -9 13 -10 13 -10 0 0 -9 -10 -16 -26 -17 -14 0 -31
-7 -38 -13 -8 -10 -8 -11 3 -5 9 5 12 4 7 -3 -3 -6 -15 -9 -25 -7 -11 2 -22
-3 -25 -11 -3 -8 -13 -14 -21 -14 -9 0 -13 -4 -10 -10 3 -5 -1 -10 -9 -10 -9
0 -16 -4 -16 -10 0 -5 -6 -10 -14 -10 -8 0 -18 -9 -21 -20 -4 -11 -10 -18 -15
-15 -5 3 -21 -6 -36 -20 -15 -14 -33 -25 -42 -25 -8 0 -12 -6 -9 -14 4 -10 1
-13 -9 -9 -7 3 -14 0 -14 -7 0 -6 -4 -8 -10 -5 -5 3 -10 -1 -10 -9 0 -9 -8
-16 -17 -16 -15 0 -16 -2 -3 -10 13 -9 13 -10 0 -10 -9 0 -22 -9 -30 -19 -7
-11 -17 -18 -22 -15 -4 3 -8 0 -8 -5 0 -6 -18 -29 -39 -50 -22 -22 -37 -42
-33 -45 3 -3 0 -6 -6 -6 -7 0 -12 -7 -12 -16 0 -8 -4 -13 -9 -10 -12 8 -34
-21 -26 -34 5 -9 -7 -14 -27 -11 -4 0 -4 -7 -1 -16 4 -11 3 -14 -5 -9 -7 4
-12 2 -12 -4 0 -7 -9 -23 -20 -37 -11 -14 -20 -34 -20 -45 0 -11 -4 -16 -10
-13 -5 3 -11 1 -11 -4 -1 -6 -2 -15 -3 -19 0 -5 -9 -16 -18 -26 -10 -10 -18
-23 -18 -30 0 -8 -7 -19 -15 -26 -8 -7 -13 -16 -10 -20 3 -5 0 -12 -6 -15 -5
-4 -8 -13 -6 -19 3 -7 -3 -19 -13 -26 -11 -8 -17 -18 -14 -22 3 -5 0 -16 -8
-25 -11 -14 -11 -15 0 -9 11 7 11 4 1 -12 -7 -12 -18 -18 -24 -15 -5 4 -7 3
-3 -2 4 -4 2 -15 -5 -23 -8 -11 -8 -14 0 -9 6 4 14 3 18 -3 3 -5 -1 -10 -9
-10 -9 0 -16 -8 -17 -17 0 -10 -2 -27 -5 -38 -2 -11 -5 -30 -6 -42 -1 -13 -6
-23 -11 -23 -5 0 -7 -9 -4 -20 3 -11 1 -20 -4 -20 -6 0 -5 -9 2 -21 6 -12 7
-19 1 -15 -13 8 -22 -17 -12 -34 5 -8 4 -22 -2 -33 -7 -15 -7 -18 2 -12 9 6 9
2 1 -14 -9 -16 -9 -21 1 -21 8 0 9 -3 3 -8 -15 -11 -16 -73 -2 -91 9 -11 9
-13 0 -8 -13 8 -13 -29 0 -50 4 -6 3 -14 -2 -18 -6 -3 -4 -20 6 -42 14 -36 14
-36 -3 -23 -16 13 -15 9 3 -22 20 -33 20 -39 6 -46 -13 -8 -13 -10 2 -16 13
-5 15 -9 6 -20 -9 -10 -8 -15 4 -20 8 -3 15 -10 15 -16 0 -6 -6 -8 -12 -5 -7
4 -5 0 4 -8 10 -8 15 -17 11 -20 -3 -4 -1 -7 6 -7 8 0 11 -8 8 -20 -3 -13 -1
-18 6 -13 6 4 8 0 4 -10 -4 -10 -2 -17 4 -17 6 0 9 -7 5 -15 -3 -8 -1 -15 5
-15 6 0 9 -7 5 -15 -3 -10 1 -15 12 -16 10 0 12 -3 5 -6 -10 -3 -10 -7 0 -18
7 -7 16 -10 21 -7 5 3 6 0 2 -7 -5 -7 0 -19 10 -27 11 -9 13 -13 4 -9 -8 4 -5
-2 8 -13 12 -11 22 -27 22 -36 0 -9 4 -16 9 -16 5 0 12 -8 15 -18 4 -10 20
-34 36 -52 16 -18 27 -37 23 -43 -3 -6 -2 -8 3 -5 8 5 43 -23 37 -29 -8 -8 -2
-23 7 -18 5 3 10 0 10 -8 0 -8 7 -18 16 -21 8 -3 12 -11 8 -17 -5 -8 -3 -9 7
-3 20 12 40 14 33 3 -3 -5 -11 -6 -17 -3 -9 5 -9 4 0 -6 6 -7 9 -20 6 -29 -4
-13 -3 -14 5 -1 6 8 8 18 5 23 -3 5 0 7 8 5 8 -3 13 -11 11 -17 -1 -6 3 -11 9
-11 6 0 8 -7 5 -16 -5 -14 -4 -15 9 -4 13 11 14 10 9 -5 -6 -14 -4 -16 6 -10
8 5 11 4 7 -2 -4 -6 -16 -13 -27 -16 -11 -3 -17 -1 -14 4 3 5 -2 12 -11 16
-10 3 -21 0 -26 -8 -7 -11 -9 -11 -9 2 0 12 -8 15 -30 13 -16 -2 -30 0 -30 5
0 5 -8 8 -17 6 -10 -1 -26 2 -37 7 -13 7 -16 7 -12 -1 4 -6 0 -11 -9 -11 -9 0
-14 3 -12 8 3 4 -17 7 -43 7 -27 1 -46 -3 -44 -7 3 -4 -2 -5 -10 -2 -9 3 -13
11 -9 18 3 6 1 6 -8 -1 -17 -17 -63 -17 -53 -1 5 7 3 8 -7 2 -23 -14 -51 -16
-43 -2 5 8 2 9 -10 5 -10 -4 -20 -7 -22 -7 -3 0 -2 -4 1 -10 3 -6 -1 -7 -9 -4
-9 3 -16 10 -16 15 0 5 -5 9 -11 9 -5 0 -7 -5 -3 -11 5 -8 1 -8 -14 0 -12 6
-23 7 -26 2 -3 -5 -16 -7 -28 -3 -15 4 -19 2 -13 -7 6 -10 3 -11 -11 -3 -11 5
-25 7 -33 4 -8 -3 -11 0 -7 7 4 6 2 11 -3 11 -6 0 -11 -4 -11 -10 0 -14 -53
-12 -69 3 -11 10 -13 10 -7 0 5 -9 -2 -13 -21 -14 -15 -1 -35 -2 -43 -3 -8 -1
-23 2 -34 7 -13 7 -16 6 -11 -3 5 -9 1 -10 -14 -5 -14 4 -21 2 -21 -7 0 -8 -3
-9 -8 -3 -9 13 -42 15 -42 3 0 -6 -6 -5 -15 2 -11 9 -15 9 -15 1 0 -7 -5 -9
-10 -6 -6 3 -10 1 -10 -4 0 -6 -5 -11 -11 -11 -5 0 -7 5 -4 10 9 15 -8 12 -34
-7 -14 -9 -21 -11 -17 -5 4 7 -1 10 -14 9 -12 -1 -19 -6 -15 -14 3 -10 0 -11
-14 -3 -14 7 -21 6 -24 -3 -4 -9 -6 -9 -6 1 -1 6 -6 12 -12 12 -5 0 -8 -4 -5
-9 3 -4 -6 -6 -21 -3 -19 4 -24 2 -18 -8 6 -9 3 -10 -14 -1 -11 7 -21 8 -21 3
0 -5 -6 -9 -12 -9 -7 -1 -32 -2 -55 -4 -23 -1 -41 -5 -39 -8 2 -3 -16 -7 -41
-8 -24 -1 -50 -7 -58 -13 -9 -8 -15 -8 -20 0 -3 5 -12 10 -18 10 -7 0 -6 -4 3
-10 17 -11 21 -10 -55 -15 -64 -4 -66 -5 -62 -12 3 -5 -12 -7 -34 -7 -21 1
-39 -3 -39 -8 0 -6 -8 -4 -17 3 -14 12 -16 12 -8 0 6 -11 4 -13 -8 -8 -10 3
-17 2 -17 -3 0 -6 -5 -10 -11 -10 -5 0 -8 4 -5 9 4 5 -3 7 -14 4 -11 -3 -17
-10 -13 -17 4 -7 1 -6 -7 1 -10 9 -17 9 -26 2 -7 -6 -31 -12 -52 -14 -22 -1
-44 -4 -48 -7 -5 -2 -25 -5 -44 -7 -19 -1 -39 -7 -45 -12 -14 -13 -27 -11 -19
4 5 8 3 8 -9 -2 -9 -7 -26 -11 -37 -8 -11 3 -23 1 -26 -4 -3 -5 -10 -7 -15 -4
-5 4 -9 1 -9 -6 0 -6 -8 -9 -20 -6 -11 3 -20 0 -20 -6 0 -7 -5 -5 -10 3 -8 12
-10 12 -10 1 0 -10 -3 -11 -13 -2 -10 8 -17 7 -26 -2 -12 -12 -19 -13 -96 -16
-30 -1 -36 -4 -25 -11 8 -5 10 -10 5 -10 -6 0 -16 5 -23 12 -9 9 -12 9 -12 -3
0 -12 -2 -12 -10 1 -7 12 -10 12 -10 1 0 -7 -6 -11 -15 -7 -8 3 -15 2 -15 -2
0 -5 -15 -7 -32 -6 -18 1 -41 -2 -51 -8 -14 -7 -17 -7 -13 1 4 6 3 11 -3 11
-5 0 -12 -4 -15 -9 -4 -5 -14 -8 -24 -6 -9 1 -22 -2 -29 -7 -7 -5 -14 -5 -18
2 -3 6 -13 7 -23 2 -9 -4 -29 -7 -44 -6 -16 0 -28 -4 -28 -10 0 -7 -3 -7 -8 1
-8 13 -29 12 -51 -1 -9 -6 -12 -5 -8 1 4 6 -8 10 -28 10 -22 0 -32 -4 -28 -11
4 -6 0 -5 -8 1 -11 9 -19 9 -26 2 -7 -7 -15 -5 -27 6 -9 9 -16 12 -16 7 0 -11
-18 -11 -37 1 -7 5 -13 4 -13 -2 0 -6 -6 -8 -13 -5 -7 2 -33 6 -58 9 -24 2
-44 4 -44 6 0 1 -24 2 -52 3 -29 1 -56 5 -59 9 -4 4 -13 -1 -20 -11 -12 -15
-13 -15 -14 -1 0 9 -6 16 -14 16 -8 0 -12 -5 -10 -12 3 -6 -5 -11 -16 -12 -11
-1 -20 2 -20 7 0 7 -30 11 -93 11 -9 0 -15 4 -12 10 4 5 -1 9 -10 9 -10 0 -13
-5 -9 -12 6 -10 4 -10 -8 0 -9 7 -32 13 -51 14 -20 1 -34 5 -31 10 3 4 -2 8
-10 8 -9 0 -16 5 -16 11 0 5 -4 8 -9 5 -5 -3 -11 1 -15 9 -3 8 -11 12 -18 10
-8 -3 -22 2 -33 11 -11 8 -14 13 -7 9 21 -11 13 4 -9 16 -17 9 -20 8 -14 -3 4
-7 -2 -2 -13 11 -13 16 -21 20 -26 12 -5 -8 -12 -7 -22 4 -9 8 -20 13 -25 10
-5 -4 -9 0 -9 7 0 9 -3 9 -10 -2 -8 -12 -10 -12 -10 -1 0 8 -3 11 -7 8 -3 -4
-17 0 -31 9 -13 9 -21 11 -18 5 4 -6 0 -11 -9 -11 -9 0 -14 4 -11 8 3 5 -1 9
-9 9 -8 0 -11 -5 -8 -11 3 -6 0 -5 -8 2 -7 6 -17 12 -22 12 -4 0 -5 -6 -1 -12
6 -9 3 -9 -9 0 -18 15 -167 22 -167 8 0 -5 -6 -4 -12 1 -7 6 -34 9 -60 8 -27
-1 -48 3 -48 8 0 5 -7 4 -15 -3 -11 -9 -15 -9 -15 -1 0 8 -5 9 -19 2 -14 -8
-23 -6 -37 10 -10 11 -26 18 -35 16 -13 -3 -16 0 -12 11 5 11 2 14 -10 9 -11
-4 -17 -1 -17 9 0 8 -4 13 -9 10 -5 -3 -11 1 -15 9 -3 8 -12 15 -21 15 -8 0
-15 5 -15 11 0 5 -4 7 -10 4 -6 -3 -10 1 -10 9 0 11 -10 16 -27 17 -25 0 -26
1 -8 9 18 8 17 9 -7 9 -16 1 -28 5 -28 11 0 5 -3 9 -7 8 -14 -3 -83 36 -83 47
0 6 -9 11 -19 12 -11 1 -34 15 -52 32 -17 17 -35 28 -40 25 -5 -3 -9 3 -9 13
0 15 -2 16 -10 3 -8 -12 -10 -10 -10 11 0 14 -6 31 -12 38 -11 11 -10 12 2 6
12 -7 13 -6 3 6 -6 8 -13 19 -15 24 -1 6 -7 9 -11 7 -4 -1 -7 3 -6 10 3 27 -1
48 -11 48 -16 0 -50 33 -50 50 0 12 -2 12 -9 2 -6 -11 -10 -10 -15 3 -4 11
-12 15 -22 11 -11 -4 -15 -2 -11 8 5 13 -34 32 -56 27 -5 -1 -6 3 -2 9 3 5 -1
10 -9 10 -9 0 -16 3 -16 8 0 4 -10 13 -21 21 -19 11 -21 11 -16 -2 3 -9 1 -18
-6 -21 -7 -2 -3 -5 8 -5 17 -1 17 -3 5 -11 -8 -5 -10 -10 -4 -10 19 0 12 -26
-8 -27 -10 -1 -18 3 -18 9 0 6 -3 8 -7 5 -7 -8 -63 51 -63 66 0 5 -7 4 -15 -3
-12 -10 -14 -8 -10 9 3 15 0 18 -12 14 -13 -5 -15 -2 -10 11 4 9 3 15 -2 12
-5 -3 -20 6 -34 20 -15 15 -31 23 -38 18 -8 -4 -9 -3 -5 4 4 7 3 12 -3 12 -6
0 -7 7 -4 17 5 11 3 14 -6 8 -9 -5 -21 2 -36 19 -12 14 -25 23 -29 19 -3 -3
-6 1 -6 10 0 9 -4 19 -10 22 -6 3 -7 -1 -4 -12 4 -15 3 -14 -7 2 -17 28 -31
40 -52 48 -10 4 -16 11 -12 16 3 5 -4 12 -15 16 -11 3 -20 11 -20 16 0 5 -3 8
-7 8 -21 -3 -33 2 -33 15 0 7 -8 20 -17 27 -11 9 -14 10 -9 2 5 -9 2 -11 -8
-7 -9 3 -13 10 -10 15 3 5 -4 9 -16 9 -12 0 -18 5 -15 10 3 6 -1 10 -10 10 -9
0 -24 14 -33 30 -11 19 -22 28 -32 24 -8 -3 -11 -2 -7 2 8 8 -37 72 -66 92
-13 10 -15 17 -7 27 7 9 6 16 -5 25 -9 7 -14 19 -11 27 3 7 1 13 -5 13 -6 0
-8 4 -5 9 3 5 -1 14 -9 21 -8 7 -15 23 -15 36 0 12 -5 26 -10 29 -6 4 -8 11
-5 16 4 5 -2 9 -11 9 -10 0 -14 3 -11 7 4 3 -3 22 -15 41 -14 23 -17 33 -7 28
8 -4 3 2 -11 14 -14 12 -20 19 -13 16 6 -4 14 -2 18 4 3 5 -1 10 -10 10 -9 0
-14 4 -11 9 4 5 2 11 -4 13 -5 1 -11 13 -13 25 -2 12 -11 31 -20 41 -9 10 -14
22 -10 25 3 4 -1 7 -10 7 -9 0 -16 3 -16 8 3 19 -2 33 -11 27 -6 -3 -7 1 -4 9
3 9 1 16 -6 16 -6 0 -8 5 -5 10 3 6 1 10 -6 10 -7 0 -9 3 -5 7 3 4 -4 13 -16
21 -16 9 -17 12 -4 7 16 -5 17 -3 6 10 -7 8 -16 12 -21 9 -5 -3 -8 -2 -7 3 5
16 -24 54 -37 50 -9 -4 -11 1 -8 14 3 11 0 19 -6 19 -7 0 -9 5 -5 12 4 6 3 8
-4 4 -6 -3 -23 11 -39 34 -15 22 -33 38 -40 35 -6 -2 -14 3 -17 11 -4 10 -2
12 6 8 7 -4 8 -3 4 4 -4 7 -14 12 -22 12 -8 0 -14 5 -14 11 0 5 -5 7 -12 3 -8
-5 -9 -2 -5 10 4 10 3 15 -3 11 -6 -3 -10 1 -10 10 0 9 -5 13 -10 10 -6 -4
-34 19 -64 49 -29 31 -59 56 -65 56 -6 0 -11 5 -11 11 0 5 -5 7 -12 3 -6 -4
-8 -3 -4 4 7 12 -42 54 -55 46 -5 -3 -9 -1 -9 4 0 11 -35 52 -44 52 -12 0 -55
48 -49 54 4 3 -4 6 -16 6 -12 0 -20 4 -17 9 9 13 -22 34 -39 27 -9 -3 -13 -2
-10 4 7 11 -19 42 -28 34 -3 -3 -8 4 -12 15 -3 12 -10 19 -15 16 -4 -3 -11 2
-14 11 -3 9 -11 12 -18 8 -7 -4 -10 -4 -6 1 8 9 -15 35 -31 35 -6 0 -11 7 -11
14 0 8 -12 21 -27 29 -16 7 -27 19 -25 26 1 7 -2 10 -8 6 -5 -3 -13 1 -16 9
-3 9 -10 16 -16 16 -14 0 -38 27 -31 34 4 3 -1 6 -11 6 -9 0 -19 6 -22 14 -3
8 -12 12 -20 9 -8 -3 -14 0 -14 7 0 9 -4 9 -17 -1 -11 -10 -14 -10 -9 -1 9 15
6 15 -18 -3z m8379 -205 c3 -5 1 -10 -4 -10 -6 0 -11 5 -11 10 0 6 2 10 4 10
3 0 8 -4 11 -10z m-1694 -703 c-10 -9 -11 -8 -5 6 3 10 9 15 12 12 3 -3 0 -11
-7 -18z m1515 -1753 c-3 -7 -1 -16 4 -19 15 -9 12 -27 -2 -19 -10 5 -10 4 -1
-6 6 -7 9 -19 6 -26 -3 -8 -1 -14 5 -14 12 0 11 -18 -2 -39 -7 -10 -6 -12 4
-6 10 6 12 3 8 -13 -4 -12 -2 -20 2 -17 12 8 18 -26 8 -53 -5 -15 -4 -21 2
-17 6 3 10 2 10 -3 0 -6 7 -13 16 -16 10 -4 13 -2 8 7 -5 9 -4 9 6 0 9 -8 19
-9 32 -2 12 7 18 6 18 -1 0 -7 7 -8 18 -3 9 5 29 8 45 7 15 0 27 4 27 10 0 6
4 5 9 -3 6 -9 11 -10 15 -2 4 6 11 9 16 6 5 -3 11 -1 15 4 3 6 12 8 20 4 8 -3
15 0 15 7 0 6 6 10 13 7 6 -2 18 3 25 12 8 9 11 11 8 4 -5 -8 0 -8 19 0 14 7
25 15 25 19 0 4 7 4 17 1 11 -4 14 -3 9 5 -5 8 0 12 13 12 12 0 21 5 21 12 0
6 3 9 6 5 6 -5 15 0 48 30 8 7 16 9 20 6 3 -4 6 -1 6 5 0 7 7 12 15 12 9 0 20
10 25 23 5 12 9 18 9 13 1 -5 16 6 34 25 27 28 36 32 46 22 9 -10 9 -13 -1
-13 -8 0 -9 -3 -3 -8 6 -4 10 -17 9 -29 -1 -13 3 -23 9 -23 6 0 7 -3 4 -6 -3
-4 -2 -15 4 -25 7 -14 6 -19 -2 -19 -8 0 -8 -4 1 -15 7 -8 9 -15 5 -15 -4 0
-1 -8 6 -17 10 -11 10 -14 2 -9 -8 4 -13 1 -13 -8 0 -9 5 -16 10 -16 6 0 10
-5 10 -11 0 -5 -3 -8 -8 -6 -4 3 -7 -8 -7 -23 -1 -16 3 -26 7 -24 11 7 10 -8
-2 -26 -6 -9 -5 -20 3 -29 9 -12 9 -13 0 -7 -9 5 -13 0 -14 -16 -1 -13 -2 -27
-3 -33 -12 -55 -20 -75 -30 -75 -6 0 -4 -5 4 -10 13 -8 13 -10 -2 -10 -11 0
-15 -5 -12 -15 4 -8 1 -15 -6 -15 -6 0 -9 -4 -6 -9 3 -5 -2 -12 -11 -15 -15
-6 -15 -8 -3 -16 13 -8 13 -10 -1 -10 -9 0 -20 -7 -23 -16 -3 -9 -11 -12 -18
-8 -10 6 -10 4 0 -8 10 -13 10 -17 -5 -23 -10 -5 -22 -7 -27 -6 -5 1 -6 -7 -3
-19 3 -11 1 -18 -5 -14 -12 8 -38 -27 -30 -41 3 -5 -1 -4 -10 3 -13 10 -18 9
-29 -5 -12 -14 -12 -16 0 -8 10 5 12 4 7 -4 -4 -6 -11 -9 -16 -6 -5 3 -12 0
-15 -6 -4 -5 -13 -8 -21 -5 -8 3 -17 -1 -20 -9 -4 -8 -10 -12 -15 -9 -5 3 -9
0 -9 -6 0 -6 -4 -8 -10 -5 -5 3 -10 1 -10 -4 0 -6 -11 -11 -25 -11 -14 0 -25
-5 -25 -12 0 -6 -3 -8 -7 -5 -3 4 -12 2 -20 -4 -7 -6 -13 -8 -13 -3 0 5 -5 2
-10 -6 -6 -10 -10 -11 -10 -2 0 6 -5 12 -11 12 -6 0 -9 -6 -6 -13 3 -7 -3 -13
-13 -13 -10 0 -16 4 -14 8 3 4 0 8 -5 8 -6 0 -11 -4 -11 -8 0 -4 -8 -8 -17 -9
-68 -5 -119 -15 -126 -26 -6 -8 -7 -6 -3 7 5 14 2 17 -9 12 -9 -3 -13 -2 -10
3 3 5 -10 15 -29 22 -19 7 -33 16 -30 21 3 4 -2 8 -11 8 -8 0 -20 12 -25 26
-6 14 -16 32 -23 39 -22 25 -32 40 -46 67 -8 15 -18 25 -23 22 -4 -3 -8 3 -8
13 0 9 -12 28 -27 41 -16 13 -22 21 -15 17 6 -3 12 -1 12 4 0 6 -9 11 -21 11
-11 0 -17 5 -14 10 3 6 1 10 -4 10 -6 0 -11 7 -11 16 0 8 -4 13 -9 9 -9 -5
-27 32 -23 48 1 4 -2 7 -8 7 -5 0 -10 5 -10 11 0 5 6 7 13 3 9 -5 9 -4 0 6 -6
7 -9 19 -6 28 5 11 3 13 -8 7 -11 -7 -12 -6 -3 6 7 8 11 42 10 76 -2 42 1 60
8 56 6 -4 2 4 -8 16 -13 14 -15 20 -5 16 11 -4 14 6 13 50 -1 31 -4 59 -7 62
-4 3 0 15 8 27 18 25 19 40 3 30 -7 -4 -10 -3 -5 1 7 9 34 15 72 18 11 1 23 7
27 12 5 6 8 4 8 -5 1 -12 3 -12 11 2 5 9 16 15 24 12 8 -4 12 -11 8 -17 -3 -6
-1 -7 6 -3 6 4 9 11 7 15 -3 4 16 7 41 8 25 1 50 6 56 12 14 14 40 -7 33 -25z
m-9236 -754 c0 -5 -4 -10 -9 -10 -6 0 -13 5 -16 10 -3 6 1 10 9 10 9 0 16 -4
16 -10z m34 -18 c3 -5 -1 -9 -9 -9 -8 0 -15 4 -15 9 0 4 4 8 9 8 6 0 12 -4 15
-8z m1720 -114 c-3 -5 0 -16 8 -25 11 -14 11 -15 -2 -8 -8 6 -18 10 -22 10 -5
0 -8 3 -8 8 0 4 0 11 0 15 0 5 7 9 15 9 8 0 12 -4 9 -9z m9126 -508 c0 -5 -5
-10 -11 -10 -5 0 -7 5 -4 10 3 6 8 10 11 10 2 0 4 -4 4 -10z m-7654 -1862 c-4
6 -2 12 3 12 6 0 11 -6 11 -12 0 -8 3 -9 8 -3 10 14 32 17 32 4 0 -5 5 -7 12
-3 7 5 8 3 4 -5 -5 -7 0 -18 10 -26 15 -11 16 -14 4 -15 -13 0 -13 -1 0 -10
13 -8 12 -10 -4 -10 -10 0 -25 8 -33 18 -8 9 -12 11 -8 5 4 -9 1 -11 -9 -7 -9
3 -13 10 -10 15 5 8 -18 14 -39 10 -5 -1 -5 4 -1 10 5 8 2 10 -8 6 -11 -4 -15
-1 -13 11 2 9 4 19 4 21 1 2 11 -4 23 -15 12 -10 18 -13 14 -6z m4889 -1327
c3 -5 2 -12 -3 -15 -5 -3 -9 1 -9 9 0 17 3 19 12 6z m-3750 -1471 c3 -5 1 -10
-4 -10 -6 0 -11 5 -11 10 0 6 2 10 4 10 3 0 8 -4 11 -10z"/>
<path d="M360 7942 c0 -6 -8 -9 -17 -6 -15 5 -16 4 -3 -5 16 -11 40 3 27 16
-4 3 -7 1 -7 -5z"/>
<path d="M1241 4412 c0 -7 -6 -10 -12 -6 -6 3 -21 -4 -33 -18 -11 -13 -17 -18
-12 -11 6 10 4 12 -8 7 -9 -3 -16 -13 -16 -21 0 -8 -4 -12 -9 -8 -5 3 -12 -4
-16 -15 -3 -11 -11 -19 -17 -17 -6 1 -17 -9 -24 -22 -7 -13 -20 -28 -28 -33
-9 -5 -16 -15 -16 -22 0 -8 -7 -16 -15 -20 -8 -3 -15 -12 -15 -20 0 -7 -8 -17
-17 -20 -15 -6 -15 -8 -3 -16 13 -8 13 -10 -1 -10 -9 0 -20 -7 -23 -16 -6 -15
-4 -15 11 -3 17 13 17 13 1 -7 -10 -11 -18 -24 -18 -29 0 -4 -8 -14 -17 -22
-10 -8 -12 -11 -4 -7 9 4 12 2 9 -7 -3 -8 -11 -13 -18 -11 -11 3 -11 0 0 -12
8 -11 9 -16 1 -16 -6 0 -11 -8 -11 -18 0 -10 -6 -24 -12 -31 -11 -11 -10 -12
2 -6 13 8 13 7 1 -9 -13 -15 -13 -19 0 -27 12 -7 11 -9 -3 -9 -12 0 -15 -6
-10 -22 3 -12 1 -19 -4 -15 -13 8 -13 -36 0 -45 8 -5 7 -8 -1 -8 -17 0 -7 -40
13 -55 9 -6 14 -17 10 -23 -4 -7 -2 -12 4 -12 17 0 40 -26 40 -45 0 -9 5 -13
10 -10 6 3 10 -1 10 -9 0 -9 5 -16 10 -16 6 0 10 -7 10 -16 0 -8 5 -12 10 -9
9 6 14 -8 11 -27 0 -5 5 -8 12 -8 6 0 18 -14 26 -31 7 -17 24 -41 37 -54 13
-13 24 -29 24 -35 0 -6 5 -8 12 -4 8 5 9 2 5 -9 -4 -11 -1 -17 8 -17 9 0 12
-6 9 -15 -4 -10 0 -15 11 -15 9 0 13 -4 10 -10 -3 -5 -2 -10 4 -10 6 0 18 -14
26 -30 9 -18 21 -28 27 -24 6 4 8 3 5 -3 -8 -13 41 -85 53 -78 6 3 7 0 4 -8
-3 -8 2 -17 10 -20 9 -4 16 -14 16 -23 0 -10 5 -14 16 -10 8 3 13 2 9 -3 -9
-16 7 -41 27 -41 17 0 18 3 8 15 -10 12 -10 15 1 15 11 0 11 2 -1 10 -12 8
-12 10 5 11 l20 0 -20 9 c-13 6 -15 9 -5 9 13 1 13 2 0 11 -12 8 -12 10 -1 10
11 0 11 3 0 17 -12 15 -12 16 6 9 16 -6 18 -5 8 5 -22 22 -16 40 12 34 14 -3
35 -7 48 -10 25 -5 35 -44 14 -57 -9 -6 -8 -8 2 -8 10 0 11 -3 2 -14 -9 -10
-9 -16 -1 -21 8 -5 8 -10 0 -20 -8 -9 -8 -15 0 -20 6 -3 8 -11 5 -16 -3 -5 1
-6 10 -3 14 6 14 8 -2 21 -17 13 -16 14 5 8 21 -6 27 2 23 28 -1 5 3 6 9 2 5
-3 10 -1 10 5 0 6 5 8 12 4 7 -4 8 -3 4 5 -4 6 0 18 8 27 9 8 16 22 16 29 0 9
6 12 15 8 9 -3 15 -2 14 3 -6 24 43 89 56 76 4 -4 6 -2 5 3 -1 6 -2 15 -1 21
1 15 48 64 54 58 3 -3 4 3 3 13 0 10 5 17 11 16 7 -2 12 0 12 5 -3 19 2 33 10
28 5 -4 12 8 16 25 5 23 9 28 16 18 7 -11 9 -10 9 4 0 10 4 15 10 12 6 -3 7 1
4 9 -3 9 -1 16 5 16 6 0 11 7 11 15 0 7 6 18 14 22 14 7 16 12 16 31 0 4 5 0
11 -8 8 -12 9 -10 4 8 -6 21 2 27 28 23 5 -1 6 3 2 9 -9 15 14 41 29 33 6 -4
5 1 -3 10 -12 15 -11 17 3 17 10 0 14 5 11 10 -3 6 -1 10 5 10 6 0 8 6 4 13
-4 6 -4 9 1 5 11 -10 36 12 29 24 -4 6 -7 26 -9 45 -1 19 -8 39 -15 43 -10 6
-9 9 1 13 12 4 11 7 -1 16 -13 10 -13 11 0 11 12 0 13 2 1 9 -7 5 -10 14 -7
20 4 6 2 11 -4 11 -7 0 -10 7 -6 15 3 8 1 15 -4 15 -6 0 -10 11 -10 24 0 13
-5 26 -10 28 -6 2 -12 13 -13 26 0 12 -5 22 -9 22 -4 0 -5 7 -1 15 3 10 0 15
-8 13 -8 -2 -15 7 -17 20 -2 12 -8 22 -14 22 -6 0 -9 3 -5 6 3 3 -5 16 -17 28
-13 11 -21 27 -19 34 3 6 -2 12 -11 12 -8 0 -18 4 -21 10 -3 6 1 7 12 4 10 -3
5 2 -10 11 -16 9 -25 21 -21 27 4 7 3 8 -4 4 -7 -4 -12 -2 -12 4 0 6 -4 9 -9
6 -5 -3 -12 1 -15 10 -3 8 -10 12 -16 9 -6 -4 -7 1 -3 11 4 11 3 15 -5 10 -6
-3 -21 4 -33 16 -12 13 -18 16 -14 8 5 -9 0 -8 -14 4 -22 20 -22 20 -28 -2 -3
-12 -12 -22 -19 -22 -8 0 -13 -6 -11 -12 1 -7 -4 -12 -10 -11 -7 2 -13 -2 -13
-8 0 -5 -4 -7 -10 -4 -6 3 -7 -1 -4 -9 4 -11 0 -16 -12 -16 -9 0 -15 -3 -12
-6 7 -7 -34 -49 -56 -57 -9 -4 -16 -11 -16 -17 0 -5 -5 -10 -11 -10 -16 0 -39
26 -31 36 4 5 -1 2 -10 -5 -15 -11 -17 -10 -13 8 2 12 0 19 -6 16 -5 -4 -9 -2
-9 4 0 5 -9 12 -20 16 -11 3 -19 11 -17 17 1 5 -7 15 -18 21 -32 20 -47 36
-40 47 3 5 0 7 -9 4 -8 -3 -16 2 -19 13 -3 10 -5 12 -6 5z"/>
<path d="M2304 3793 c5 -9 -3 -11 -34 -7 -27 4 -46 1 -57 -8 -13 -10 -15 -10
-9 0 6 9 1 11 -18 8 -14 -3 -31 -8 -37 -12 -8 -5 -9 -3 -4 5 6 10 3 11 -13 2
-10 -6 -29 -9 -40 -6 -12 2 -23 -3 -27 -13 -5 -14 -7 -14 -15 -2 -8 12 -10 10
-10 -7 0 -14 -6 -23 -15 -23 -8 0 -15 -5 -15 -11 0 -5 6 -7 13 -4 6 4 4 0 -5
-8 -10 -8 -18 -19 -18 -25 0 -6 -10 -14 -21 -17 -14 -5 -18 -10 -10 -14 9 -6
8 -11 -3 -20 -8 -7 -20 -10 -25 -6 -6 3 -9 0 -6 -7 3 -8 -4 -24 -15 -36 -11
-12 -18 -22 -14 -22 3 0 -4 -9 -17 -20 -13 -10 -21 -19 -17 -20 4 0 -4 -12
-17 -26 -14 -15 -25 -33 -25 -40 0 -8 -6 -13 -12 -12 -7 2 -12 -5 -10 -14 2
-11 -3 -18 -14 -18 -10 0 -14 -3 -11 -7 4 -3 -2 -13 -14 -21 -11 -8 -18 -20
-15 -29 3 -8 1 -11 -4 -8 -6 3 -13 -2 -17 -12 -4 -10 -11 -21 -17 -25 -6 -4
-11 -13 -11 -20 -1 -7 -7 -12 -14 -10 -7 1 -11 -3 -8 -10 2 -7 -6 -23 -19 -34
-12 -12 -20 -24 -18 -27 3 -3 -4 -10 -15 -17 -12 -6 -21 -18 -21 -26 0 -8 -4
-12 -10 -9 -6 4 -7 -1 -3 -11 4 -12 3 -15 -5 -10 -7 4 -12 1 -12 -8 0 -9 -5
-16 -11 -16 -5 0 -7 -5 -4 -10 5 -8 12 -7 22 2 9 7 19 12 22 11 3 0 5 4 3 10
-2 7 2 6 11 -1 10 -9 17 -9 27 1 10 10 11 9 5 -3 -6 -12 -5 -13 6 -2 7 6 21
12 31 12 10 0 18 5 18 10 0 6 5 10 11 10 5 0 7 -4 4 -10 -3 -5 -2 -10 4 -10 6
0 7 -7 4 -17 -5 -11 -3 -14 6 -8 10 6 11 2 6 -15 -5 -15 -4 -20 4 -16 6 4 11
1 11 -8 0 -9 -7 -13 -20 -11 -11 2 -20 -1 -20 -6 0 -6 -4 -7 -10 -4 -5 3 -10
0 -10 -7 0 -10 -3 -9 -10 2 -8 12 -10 12 -16 -3 -3 -9 -10 -14 -15 -11 -6 3
-17 0 -26 -8 -14 -11 -16 -11 -8 1 5 10 4 12 -3 7 -19 -11 -15 -47 4 -39 8 3
26 0 40 -7 13 -8 27 -10 30 -7 4 4 13 -1 21 -11 9 -11 12 -11 7 -2 -6 12 -4
13 7 3 7 -7 22 -13 32 -13 11 0 26 -8 34 -17 14 -17 14 -17 9 2 -5 18 -4 17
14 -4 12 -14 20 -18 20 -10 0 11 2 11 10 -1 5 -8 10 -11 10 -6 0 5 8 2 18 -7
13 -12 22 -13 29 -6 7 7 14 5 22 -5 7 -8 19 -12 27 -9 8 3 20 0 28 -6 7 -6 25
-12 39 -13 14 -1 23 -6 21 -10 -3 -4 9 -8 26 -8 22 0 29 -4 24 -12 -4 -7 -4
-10 1 -6 4 4 17 3 28 -3 15 -9 18 -8 11 3 -6 10 -5 11 8 1 8 -7 18 -10 21 -6
4 3 7 1 7 -6 0 -7 5 -9 10 -6 6 3 10 0 10 -7 0 -9 3 -9 10 2 7 11 10 11 10 2
0 -7 5 -10 10 -7 6 3 10 1 10 -5 0 -6 4 -9 9 -6 5 3 14 -1 21 -9 7 -8 18 -15
24 -15 6 0 4 5 -4 10 -25 16 -1 11 33 -7 35 -18 97 -28 97 -15 0 7 15 11 57
14 9 1 10 5 2 14 -7 8 -6 14 2 20 8 4 9 3 5 -4 -11 -17 10 -14 28 4 9 8 21 12
27 8 7 -4 9 -3 6 3 -7 10 20 28 36 25 4 -1 7 6 7 16 0 14 2 15 10 2 9 -14 11
-13 14 10 0 6 5 10 9 10 4 -1 21 13 38 31 16 17 29 27 30 23 0 -5 4 0 8 11 5
11 14 20 22 20 8 0 14 5 14 10 0 17 31 55 39 48 4 -4 4 1 0 12 -6 14 -4 17 7
13 11 -4 15 0 15 16 -1 14 4 20 14 18 8 -2 12 0 7 4 -4 4 0 18 8 30 11 17 12
24 2 27 -7 3 -4 6 6 6 10 1 15 6 12 11 -3 6 -2 10 3 10 6 0 8 10 4 22 -3 13
-1 19 6 15 6 -4 9 0 8 10 -2 10 2 21 8 25 8 5 7 8 -2 8 -7 0 -10 5 -7 10 3 6
-3 10 -15 10 -11 0 -23 6 -26 14 -3 8 -14 13 -25 11 -12 -3 -17 0 -13 7 5 7 1
9 -9 5 -10 -4 -17 -1 -17 6 0 7 -9 13 -20 14 -11 1 -27 9 -36 17 -19 19 -28
21 -19 4 4 -7 -3 -3 -14 10 -11 13 -25 21 -30 18 -6 -4 -8 5 -7 20 2 15 10 31
20 36 9 5 13 14 10 20 -4 6 -1 14 6 18 8 5 15 19 17 31 2 13 8 26 14 30 17 10
45 82 41 102 -2 9 -10 17 -18 17 -8 0 -14 5 -14 10 0 6 -7 10 -15 10 -8 0 -24
9 -35 20 -11 11 -27 20 -35 20 -9 0 -27 7 -41 16 -13 9 -35 18 -47 19 -37 4
-38 5 -31 18 5 7 0 6 -11 -3 -10 -8 -16 -10 -12 -3 5 7 1 12 -10 12 -40 1 -53
5 -53 14 0 5 -7 4 -15 -3 -9 -7 -15 -8 -15 -2 0 6 -12 9 -27 7 -16 -2 -34 2
-42 9 -11 8 -13 8 -7 -1z"/>
<path d="M462 3782 c-12 -2 -19 -8 -16 -14 4 -6 -2 -6 -15 1 -15 8 -21 9 -21
1 0 -6 -4 -8 -10 -5 -5 3 -10 1 -10 -5 0 -7 -7 -10 -15 -6 -8 3 -15 0 -15 -6
0 -7 -6 -6 -16 2 -12 11 -15 11 -12 -1 2 -8 -4 -15 -12 -15 -8 -1 -19 -3 -25
-4 -5 -1 -13 -2 -17 -1 -5 0 -8 -3 -8 -9 0 -5 -9 -10 -20 -10 -10 0 -24 -9
-30 -20 -6 -11 -17 -20 -24 -20 -8 0 -19 -7 -26 -15 -7 -8 -17 -12 -23 -8 -6
3 -7 1 -3 -5 4 -7 3 -12 -1 -12 -5 0 -9 -9 -10 -20 -1 -11 2 -18 8 -15 5 4 9
-1 9 -10 0 -10 5 -13 13 -9 7 5 7 2 -2 -10 -8 -9 -10 -16 -5 -15 21 4 28 -2
14 -11 -13 -8 -12 -10 4 -10 13 0 17 -5 13 -20 -3 -11 0 -18 6 -17 6 1 13 -8
15 -20 2 -13 8 -23 13 -23 5 0 9 -9 9 -20 0 -11 5 -20 10 -20 22 0 3 -39 -25
-51 -5 -2 -9 -7 -8 -11 2 -4 -3 -5 -11 -2 -8 3 -17 0 -21 -5 -3 -6 -11 -9 -16
-6 -5 4 -9 1 -9 -4 0 -6 -7 -11 -15 -11 -8 0 -15 -4 -15 -10 0 -5 -7 -7 -15
-4 -8 4 -17 -1 -21 -9 -3 -9 -11 -14 -18 -11 -7 3 -19 -2 -26 -10 -7 -9 -17
-13 -22 -10 -6 4 -6 -1 0 -13 6 -11 7 -25 2 -33 -10 -16 -2 -42 11 -35 4 3 6
-4 4 -15 -2 -11 1 -20 7 -20 5 0 8 -7 4 -15 -3 -8 0 -14 6 -12 7 1 13 -4 14
-10 1 -7 2 -18 3 -24 0 -5 7 -7 14 -3 7 5 7 2 -2 -10 -12 -14 -12 -17 -1 -14
7 2 19 -7 25 -19 7 -13 15 -20 20 -15 5 4 5 2 2 -5 -4 -6 -1 -18 7 -26 8 -8
12 -18 8 -22 -4 -4 -2 -6 3 -5 21 5 36 0 30 -10 -3 -5 -1 -10 4 -10 6 0 11 -7
11 -15 0 -8 3 -14 7 -14 19 3 33 -2 30 -10 -1 -5 2 -9 7 -9 5 0 13 -7 18 -16
5 -9 14 -16 19 -16 16 0 39 -27 31 -35 -4 -5 1 -5 11 -2 9 4 17 2 17 -3 0 -6
7 -10 15 -10 8 0 24 -9 36 -21 12 -12 27 -22 34 -23 7 -1 21 -8 30 -16 14 -11
20 -11 37 -1 11 7 17 8 13 2 -3 -6 1 -11 9 -11 9 0 16 5 16 11 0 5 5 7 10 4 5
-3 10 -1 10 5 0 6 5 8 10 5 6 -4 18 -1 27 7 12 9 15 9 9 1 -12 -20 1 -15 25
10 19 19 21 20 15 3 -6 -19 -6 -19 12 -3 10 9 22 14 25 10 4 -3 7 -1 7 4 0 6
11 10 25 9 13 -2 22 0 20 4 -5 7 6 10 88 26 17 4 36 13 40 21 7 11 12 11 23 2
11 -9 14 -8 14 7 0 16 2 17 10 4 5 -8 10 -10 10 -4 0 11 63 30 83 26 4 -1 7 3
7 10 0 6 3 8 7 5 3 -4 13 -1 21 6 9 6 13 7 9 1 -3 -6 0 -11 8 -11 8 0 12 4 10
8 -5 6 32 22 48 20 4 -1 7 4 7 10 0 8 4 8 13 1 14 -12 51 10 39 24 -4 4 1 3
10 -4 14 -11 18 -10 27 5 9 16 12 16 21 3 9 -13 10 -13 10 0 0 12 2 12 9 2 6
-10 10 -8 14 10 10 36 8 41 -10 27 -11 -10 -14 -10 -9 -1 4 7 1 12 -8 12 -9 0
-16 6 -16 13 0 8 -4 7 -10 -3 -9 -13 -10 -13 -10 0 0 13 -1 13 -10 0 -6 -10
-10 -11 -10 -2 0 6 -7 12 -15 12 -8 0 -15 5 -15 11 0 6 -8 8 -17 5 -15 -5 -14
-3 2 9 11 9 19 19 18 23 0 4 4 6 10 4 7 -2 7 1 -1 10 -7 9 -8 19 -2 28 6 8 10
10 10 5 0 -10 23 -15 72 -18 9 -1 14 -5 12 -9 -3 -4 1 -8 8 -8 7 0 23 -3 35
-6 18 -5 21 -3 16 15 -3 11 -9 18 -14 15 -5 -3 -9 4 -9 15 0 12 -7 21 -16 21
-8 0 -12 5 -9 10 3 6 1 10 -4 10 -6 0 -10 4 -8 9 1 4 -7 17 -18 27 -12 11 -14
15 -6 9 12 -9 12 -7 1 12 -8 12 -19 21 -24 20 -6 -1 -10 4 -9 11 2 6 -2 12 -8
12 -5 0 -7 5 -4 10 4 6 1 9 -7 8 -7 -2 -12 5 -11 15 0 10 -2 16 -5 13 -3 -3
-10 4 -17 17 -6 12 -17 21 -23 19 -7 -1 -12 7 -12 18 0 12 -7 20 -17 21 -12 0
-13 2 -5 6 9 3 6 11 -10 25 -13 11 -23 24 -23 30 0 5 -9 15 -20 21 -11 7 -20
19 -20 27 0 8 -6 14 -13 12 -8 -1 -11 1 -8 6 7 12 -39 73 -49 64 -5 -4 -5 -1
-1 6 8 14 -18 45 -29 34 -5 -4 -5 -1 -1 6 5 9 0 19 -13 28 -12 8 -21 25 -21
37 0 18 -2 19 -10 7 -9 -13 -10 -13 -11 0 -1 8 -1 18 0 23 0 4 -6 7 -14 7 -8
0 -15 7 -15 15 0 16 -20 16 -32 0 -5 -6 -8 -5 -8 3 0 7 -12 12 -27 12 -16 -1
-41 2 -57 6 -23 6 -27 4 -21 -7 7 -11 6 -12 -6 -3 -16 13 -108 13 -128 0 -9
-6 -12 -5 -8 1 7 11 -11 12 -61 5z"/>
<path d="M1268 3013 c7 -3 16 -2 19 1 4 3 -2 6 -13 5 -11 0 -14 -3 -6 -6z"/>
<path d="M1271 2901 c-6 -9 -9 -10 -6 -3 7 14 -11 17 -20 2 -3 -5 -17 -10 -31
-10 -14 0 -22 -4 -19 -10 3 -6 -1 -7 -9 -4 -9 3 -16 2 -16 -4 0 -6 -8 -8 -19
-5 -10 3 -22 -1 -26 -8 -6 -8 -4 -10 5 -4 9 5 11 4 6 -4 -6 -9 -11 -9 -21 -1
-9 8 -15 8 -20 0 -4 -6 -14 -9 -23 -8 -10 2 -16 -3 -14 -10 1 -8 -2 -11 -8 -7
-5 3 -29 0 -52 -6 -24 -7 -46 -12 -50 -11 -5 1 -8 -3 -8 -9 0 -5 -4 -7 -10 -4
-5 3 -10 1 -10 -6 0 -8 -5 -7 -17 2 -11 10 -14 10 -9 2 6 -12 -4 -16 -30 -12
-4 0 -10 -5 -14 -11 -7 -11 -37 -18 -97 -22 -7 -1 -9 -6 -6 -11 4 -6 -3 -8
-15 -5 -12 4 -22 2 -22 -4 0 -6 -7 -7 -16 -4 -10 4 -13 2 -8 -6 5 -8 2 -9 -9
-5 -10 3 -17 2 -17 -4 0 -6 -4 -7 -10 -4 -6 3 -10 0 -10 -7 0 -10 -3 -9 -10 2
-8 12 -10 12 -16 -3 -5 -14 -9 -15 -20 -6 -11 9 -14 9 -14 0 0 -7 -4 -10 -9
-7 -5 3 -11 -1 -15 -9 -3 -8 -11 -15 -18 -15 -9 0 -9 3 2 10 12 7 10 9 -7 8
-13 -1 -19 -7 -16 -15 3 -8 0 -13 -8 -11 -8 2 -13 -3 -11 -9 1 -7 -3 -13 -10
-13 -6 0 -8 -3 -5 -6 3 -4 -2 -18 -13 -32 -11 -13 -17 -28 -14 -33 3 -5 1 -9
-5 -9 -5 0 -8 -9 -6 -20 2 -11 0 -18 -6 -15 -5 4 -9 -2 -9 -13 0 -10 -3 -22
-7 -26 -4 -4 -9 -19 -11 -34 -2 -15 -8 -30 -15 -34 -8 -5 -7 -11 2 -22 11 -13
11 -16 -3 -16 -9 0 -16 -5 -16 -11 0 -5 5 -7 10 -4 6 3 10 2 10 -4 0 -5 -5
-13 -10 -16 -6 -3 -10 -11 -10 -16 0 -6 6 -7 13 -3 8 5 8 2 -2 -9 -7 -9 -10
-17 -7 -17 4 0 2 -9 -4 -20 -6 -11 -7 -20 -2 -20 10 0 8 -42 -2 -59 -4 -5 -2
-13 4 -16 8 -5 7 -12 -2 -23 -11 -13 -11 -15 2 -10 11 4 16 0 16 -12 0 -10 -4
-16 -9 -13 -5 3 -4 -4 2 -14 6 -11 7 -23 4 -27 -3 -3 -1 -6 5 -6 7 0 12 -5 12
-11 0 -5 -4 -8 -9 -5 -5 4 -4 -5 2 -19 7 -14 15 -25 20 -25 4 0 7 -6 7 -13 0
-8 14 -13 40 -12 22 0 40 3 40 6 0 3 11 5 25 4 14 -2 25 1 25 7 0 7 5 7 13 -1
10 -8 17 -7 25 1 7 7 12 8 12 4 0 -5 8 -2 17 5 11 10 14 10 9 2 -4 -7 -2 -13
3 -13 6 0 11 5 11 11 0 6 6 9 14 6 7 -3 19 0 26 6 10 9 11 9 6 0 -4 -7 -2 -13
5 -13 6 0 9 -8 6 -20 -3 -12 1 -24 11 -30 13 -7 14 -9 3 -10 -12 0 -12 -3 -3
-12 16 -16 15 -31 0 -22 -9 6 -9 3 1 -9 7 -9 11 -24 7 -32 -3 -9 -2 -13 4 -10
6 3 10 -1 10 -10 0 -10 -5 -13 -12 -9 -9 5 -9 2 1 -9 7 -9 10 -17 5 -17 -5 0
-1 -5 9 -11 14 -8 16 -14 6 -25 -8 -10 -8 -14 -1 -14 6 0 9 -6 7 -12 -4 -9 9
-13 44 -14 33 0 48 3 44 10 -4 6 0 5 9 -2 13 -10 17 -10 21 0 4 10 8 10 16 -2
7 -10 11 -11 11 -3 0 7 7 10 15 7 8 -4 23 0 32 7 8 8 26 12 39 11 13 -2 24 1
24 7 0 6 9 11 20 11 12 0 34 7 49 15 16 8 32 11 36 7 5 -4 5 -1 1 6 -6 10 14
17 29 10 2 -2 12 7 20 20 9 12 20 20 25 17 4 -3 11 2 14 11 4 9 13 14 21 10 9
-3 15 0 15 9 0 8 6 14 13 12 6 -1 11 4 10 10 -2 7 3 12 10 10 6 -1 11 3 10 10
-2 8 4 10 14 6 11 -4 14 -3 9 5 -4 7 -1 12 7 12 8 0 18 7 21 16 3 8 11 12 16
9 6 -4 10 -3 9 2 -3 19 2 33 12 30 6 -1 15 8 20 21 5 13 5 21 1 18 -5 -3 -9 1
-9 9 0 8 4 12 9 9 12 -8 10 10 -4 24 -9 9 -9 12 0 12 9 0 10 5 2 19 -7 14 -6
21 3 24 9 4 8 8 -3 16 -12 8 -12 11 -1 11 11 0 11 3 1 15 -7 8 -8 15 -3 15 10
0 8 58 -1 68 -3 2 -1 14 4 26 4 13 4 29 -1 39 -8 13 -6 17 6 17 15 0 15 2 1
15 -10 11 -12 23 -7 43 5 15 4 37 0 50 -5 13 -5 21 -1 18 5 -3 6 14 2 37 -4
31 -1 46 10 55 13 12 13 13 -1 9 -9 -3 -16 1 -16 9 0 8 4 14 9 14 4 0 8 5 8
11 0 5 -6 7 -12 3 -10 -5 -10 -4 -1 6 8 8 9 20 3 36 -6 14 -6 24 0 24 5 0 5
12 0 30 -5 19 -5 30 1 30 6 0 7 6 3 12 -12 19 -12 48 -1 48 5 0 4 7 -3 15 -11
13 -10 14 6 9 10 -4 16 -4 13 0 -4 4 -17 9 -29 11 -12 2 -20 2 -17 -1 3 -3 -1
-13 -9 -22 -8 -10 -14 -20 -14 -25 0 -4 -12 -19 -26 -32 -15 -14 -23 -25 -18
-25 5 0 3 -4 -5 -9 -19 -12 -41 -3 -41 17 0 8 -3 12 -7 9 -13 -14 -33 14 -23
33 5 9 6 20 2 24 -3 4 1 4 11 0 13 -4 17 -1 17 14 0 12 10 28 22 36 12 9 18
16 13 17 -6 0 -3 3 6 7 13 6 14 9 5 18 -10 9 -16 8 -25 -5z"/>
<path d="M1559 2908 c-11 -8 -10 -9 4 -4 12 4 17 0 17 -13 0 -22 33 -54 45
-44 5 5 3 0 -4 -9 -12 -16 -11 -18 7 -18 15 0 20 -5 16 -15 -4 -8 -2 -15 3
-15 20 0 8 -31 -14 -36 -12 -4 -23 -10 -23 -15 0 -20 -38 -7 -48 16 -6 14 -16
25 -21 25 -6 0 -8 6 -5 14 5 13 -19 34 -39 34 -5 0 -12 4 -15 8 -4 4 -2 4 5 0
6 -3 15 -1 19 5 4 8 3 9 -4 5 -7 -4 -12 -1 -12 6 0 10 -3 9 -9 -1 -5 -8 -6
-22 -2 -30 4 -9 7 -23 6 -31 -1 -8 3 -20 7 -27 6 -7 4 -14 -3 -19 -8 -5 -9 -3
-4 6 6 9 4 11 -4 5 -9 -5 -10 -10 -2 -18 13 -13 15 -30 2 -23 -10 7 -9 -13 1
-30 7 -11 5 -38 -7 -75 -4 -10 -2 -19 3 -19 6 0 9 -11 8 -25 0 -14 -5 -25 -11
-25 -5 0 -4 -4 3 -9 8 -4 14 -12 14 -16 0 -4 -6 -12 -14 -16 -10 -7 -10 -9 0
-9 6 0 12 -7 12 -16 0 -9 -5 -12 -12 -8 -10 6 -10 5 -1 -7 9 -11 9 -19 2 -26
-8 -8 -8 -13 0 -17 15 -10 14 -29 -1 -20 -10 6 -10 4 0 -7 14 -16 16 -33 2
-24 -5 3 -10 1 -10 -4 0 -6 4 -11 9 -11 5 0 8 -11 7 -25 0 -14 -5 -25 -10 -25
-5 0 -4 -6 2 -13 12 -14 11 -35 -2 -56 -6 -10 -5 -12 2 -7 15 9 16 -6 1 -21
-8 -8 -8 -13 0 -17 8 -5 8 -13 0 -28 -8 -15 -8 -19 0 -14 7 5 11 -1 11 -14 0
-14 -4 -19 -12 -14 -10 6 -10 4 0 -8 10 -13 10 -17 0 -21 -10 -4 -10 -6 1 -6
11 -1 11 -4 0 -18 -10 -11 -10 -14 -1 -9 8 5 12 -1 12 -19 0 -15 4 -24 10 -20
6 3 10 -1 10 -10 0 -11 5 -15 15 -12 8 4 17 1 21 -5 4 -7 3 -8 -4 -4 -7 4 -12
3 -12 -1 0 -5 18 -19 40 -33 22 -14 40 -31 40 -38 0 -9 6 -12 16 -8 8 3 13 2
11 -2 -3 -4 1 -12 8 -19 11 -10 15 -10 18 0 3 7 6 4 6 -6 1 -10 5 -15 11 -12
5 3 17 -3 27 -15 10 -11 24 -20 33 -20 8 0 24 -7 34 -15 10 -8 23 -12 27 -9 5
3 9 0 9 -6 0 -6 5 -8 10 -5 6 3 10 2 10 -4 0 -6 7 -7 17 -4 9 4 14 2 10 -3 -3
-5 5 -11 18 -12 38 -3 49 -6 57 -17 5 -6 8 -4 8 5 0 10 3 11 8 3 9 -14 152
-22 152 -8 0 5 5 3 10 -5 8 -13 10 -12 11 5 1 11 3 25 4 30 2 6 3 16 4 23 0 7
6 10 13 6 7 -5 8 -3 2 7 -12 20 -14 38 -4 44 4 3 6 15 2 27 -3 11 -1 19 4 16
5 -4 9 15 9 40 0 54 13 73 46 66 13 -3 29 -6 34 -7 6 -2 16 -7 24 -11 9 -6 12
-5 7 2 -4 7 1 10 14 9 11 -1 20 -6 20 -11 0 -5 3 -6 7 -3 3 4 13 1 21 -6 13
-10 14 -9 8 2 -7 10 -4 12 12 7 12 -4 39 -8 61 -10 38 -3 46 2 42 27 0 4 5 7
12 7 8 0 7 4 -3 10 -11 7 -11 10 -2 10 7 0 10 5 7 10 -3 6 -2 10 4 10 6 0 8 7
5 15 -4 8 -1 15 6 15 10 0 10 3 1 14 -8 9 -8 16 -2 20 10 7 12 17 11 79 -1 24
3 36 10 32 5 -3 10 -1 10 4 0 6 -8 11 -17 11 -12 0 -14 3 -6 8 7 5 9 13 3 21
-4 8 -6 20 -3 28 3 7 0 20 -7 28 -11 13 -10 14 6 9 18 -6 17 -5 -1 9 -11 8
-17 19 -12 23 4 4 0 15 -9 25 -10 11 -12 19 -4 24 5 3 7 12 3 18 -4 7 -9 21
-10 31 -2 10 -11 25 -21 33 -9 8 -11 12 -4 8 20 -10 14 19 -8 38 -12 10 -18
22 -15 27 7 11 -25 70 -38 70 -5 0 -15 7 -24 16 -9 8 -22 13 -29 10 -8 -3 -14
-1 -14 5 0 6 -7 8 -16 5 -10 -4 -13 -2 -8 6 5 7 0 9 -14 6 -12 -4 -25 -2 -28
3 -3 5 -16 9 -29 9 -13 0 -27 5 -30 10 -3 6 -21 10 -38 10 -25 0 -29 2 -17 11
12 9 11 10 -7 6 -13 -3 -23 -1 -23 4 0 4 -7 6 -15 3 -8 -4 -17 1 -21 10 -5 13
-9 14 -20 5 -11 -9 -15 -7 -20 5 -5 13 -9 14 -20 5 -10 -8 -14 -8 -14 0 0 6
-8 11 -18 11 -10 0 -24 6 -31 13 -11 10 -12 9 -6 -3 7 -12 5 -12 -11 1 -30 25
-48 34 -39 20 5 -8 -3 -7 -23 3 -16 8 -32 12 -36 9 -3 -4 -6 0 -6 8 0 11 -2
11 -10 -1 -6 -10 -10 -11 -10 -2 0 6 -7 12 -16 12 -9 0 -12 5 -8 13 6 10 4 10
-7 0 -17 -16 -33 -17 -23 -1 5 7 2 9 -9 5 -9 -3 -18 0 -21 8 -3 8 -12 12 -20
9 -8 -3 -17 -1 -20 4 -3 6 -16 8 -28 4 -15 -4 -19 -2 -13 7 6 10 3 11 -15 1
-12 -7 -20 -8 -16 -2 9 14 -18 22 -35 10z"/>
<path d="M4340 2799 c0 -5 5 -7 10 -4 6 3 10 8 10 11 0 2 -4 4 -10 4 -5 0 -10
-5 -10 -11z"/>
<path d="M4340 2499 c0 -5 5 -7 10 -4 6 3 10 8 10 11 0 2 -4 4 -10 4 -5 0 -10
-5 -10 -11z"/>
<path d="M4178 1613 c6 -2 9 -10 6 -15 -4 -7 -2 -8 5 -4 13 9 5 26 -12 25 -9
0 -8 -2 1 -6z"/>
</g>
</svg>
