<?xml version="1.0" standalone="no"?>
<!DOCTYPE svg PUBLIC "-//W3C//DTD SVG 20010904//EN"
 "http://www.w3.org/TR/2001/REC-SVG-20010904/DTD/svg10.dtd">
<svg version="1.0" xmlns="http://www.w3.org/2000/svg"
 width="16.000000pt" height="16.000000pt" viewBox="0 0 16.000000 16.000000"
 preserveAspectRatio="xMidYMid meet">
<metadata>
Created by potrace 1.11, written by Peter Selinger 2001-2013
</metadata>
<g transform="translate(0.000000,16.000000) scale(0.006250,-0.006250)"
fill="#000000" stroke="none">
<path d="M0 2235 l0 -325 103 -1 c56 -1 206 -4 332 -8 l230 -6 3 -32 3 -33
-168 0 c-108 0 -196 5 -246 15 -43 8 -119 15 -168 15 l-89 0 1 -747 c1 -412 4
-737 6 -723 3 14 9 29 14 34 5 6 9 23 9 38 0 29 70 311 89 360 6 16 17 28 24
28 14 0 25 19 47 77 7 19 23 36 41 43 15 7 33 18 40 26 12 14 151 87 190 99
l24 8 -25 -22 -25 -22 32 5 c18 3 33 1 33 -4 0 -4 8 -10 18 -13 13 -3 11 -6
-11 -15 -16 -7 -26 -16 -23 -21 3 -4 -3 -16 -14 -26 -24 -21 -17 -35 16 -35
15 0 27 7 30 18 3 9 10 25 15 34 5 10 9 25 9 33 0 8 4 15 9 15 5 0 12 7 15 16
5 12 0 15 -22 12 -15 -2 -32 3 -39 12 -9 12 4 20 81 51 50 20 106 40 123 43
21 5 54 31 99 78 43 45 69 67 72 58 3 -7 -3 -19 -12 -25 -9 -7 -16 -17 -16
-22 0 -6 -9 -13 -19 -16 -14 -3 -18 -11 -14 -26 4 -15 1 -21 -11 -21 -9 0 -15
-3 -15 -7 4 -22 -3 -33 -20 -33 -27 0 -43 -24 -36 -53 4 -15 0 -37 -9 -55 -8
-16 -13 -32 -11 -34 8 -8 -66 -88 -81 -88 -9 0 -13 -4 -10 -9 4 -5 -11 -7 -33
-4 -37 5 -40 3 -61 -35 -28 -50 -50 -62 -50 -27 0 20 -5 25 -25 25 -28 0 -49
-32 -41 -63 3 -11 -2 -33 -10 -50 -9 -16 -17 -53 -18 -82 -1 -29 -7 -59 -12
-67 -6 -7 -18 -60 -28 -118 -17 -105 -30 -138 -41 -107 -9 23 -35 9 -35 -19 0
-28 -7 -30 -32 -7 -17 15 -21 15 -29 3 -5 -8 -8 -30 -6 -47 2 -22 -1 -33 -10
-33 -20 0 -15 -45 7 -65 15 -14 17 -21 8 -26 -9 -6 -8 -12 3 -25 12 -16 12
-17 -3 -11 -26 9 -23 -19 4 -37 13 -9 17 -16 9 -16 -11 0 -11 -3 -1 -15 8 -9
21 -13 32 -9 18 5 20 2 17 -45 l-4 -51 31 0 c27 0 32 4 40 37 11 45 31 53 44
19 12 -33 38 -33 46 0 5 17 1 29 -11 37 -11 9 -16 24 -13 47 2 30 7 35 26 33
28 -3 42 26 19 39 -24 13 -21 28 6 29 16 1 18 2 5 6 -11 3 -18 14 -18 28 0 20
5 24 30 23 17 -1 30 -5 30 -10 0 -17 29 -7 35 12 8 26 2 34 -41 55 -20 9 -39
26 -41 36 -3 10 -9 19 -13 19 -4 0 -3 17 1 38 5 20 11 53 14 72 3 19 9 42 15
50 17 27 23 1 11 -46 -7 -25 -10 -49 -7 -51 8 -9 58 109 62 147 9 80 64 222
64 166 0 -10 6 -13 15 -10 17 7 21 -11 5 -21 -20 -12 -10 -26 10 -15 11 6 25
8 30 5 14 -9 1 -33 -22 -41 -19 -6 -19 -6 -1 -20 16 -12 15 -13 -14 -14 -28 0
-33 -4 -33 -24 0 -13 5 -26 12 -28 20 -7 1 -37 -20 -31 -23 6 -40 -15 -19 -23
14 -5 27 -40 46 -129 13 -59 13 -195 0 -195 -5 0 -9 5 -9 11 0 5 -4 7 -10 4
-5 -3 -10 -19 -10 -34 0 -16 -7 -34 -15 -41 -8 -7 -15 -21 -15 -31 0 -11 -4
-19 -10 -19 -5 0 -10 -9 -10 -20 0 -11 -4 -28 -9 -38 -5 -9 -13 -26 -16 -37
-7 -19 -7 -19 -16 2 -5 14 -17 23 -29 23 -17 0 -21 -5 -18 -28 3 -25 7 -27 53
-30 45 -3 52 0 68 25 l18 28 -6 -27 -5 -28 59 0 59 0 12 53 c19 78 67 163 124
214 71 64 98 73 217 73 121 0 129 -8 11 -11 -46 -2 -85 -6 -88 -10 -3 -5 -11
-6 -19 -3 -9 4 -18 -1 -21 -11 -5 -12 -9 -13 -14 -5 -13 22 -135 -98 -136
-134 0 -11 -6 -20 -13 -18 -7 1 -11 -5 -9 -15 5 -28 38 -29 38 -1 1 21 2 22
14 6 13 -18 56 -25 56 -10 0 20 38 50 85 67 28 10 51 19 53 20 1 1 -4 15 -12
30 -8 15 -11 35 -8 44 5 12 8 10 10 -9 l4 -24 14 24 c13 24 13 23 14 -25 1
-37 4 -45 10 -30 7 17 9 17 9 3 1 -19 21 -26 21 -8 0 6 9 10 20 10 11 0 20 -4
20 -9 0 -17 45 -20 68 -5 25 17 72 12 72 -7 0 -6 -13 -24 -29 -40 -24 -24 -38
-29 -78 -29 -61 0 -128 -40 -120 -72 4 -12 1 -18 -6 -15 -7 2 -11 12 -11 21 1
11 -6 16 -22 16 -19 0 -24 -5 -24 -25 0 -14 -4 -25 -10 -25 -5 0 -10 -9 -10
-20 0 -19 7 -20 196 -20 127 0 193 3 189 10 -11 18 5 30 25 18 10 -7 17 -15
14 -19 -2 -4 9 -4 26 1 19 5 28 5 25 -1 -4 -5 38 -9 104 -9 103 0 111 1 108
19 -3 22 -25 51 -39 51 -5 0 -6 -4 -3 -10 3 -5 -1 -10 -10 -10 -12 0 -15 5
-11 16 7 18 -19 54 -40 54 -7 0 -15 -8 -17 -17 -3 -11 -5 -7 -6 10 -1 25 -4
27 -36 25 -19 -1 -40 3 -47 10 -9 9 -3 12 27 12 50 0 137 -43 175 -87 16 -18
33 -33 37 -33 3 0 17 -10 30 -22 26 -25 38 -19 29 15 -9 39 -49 90 -95 122
-38 27 -52 30 -127 34 -46 1 -84 7 -84 12 0 5 15 9 33 9 25 0 29 3 17 11 -11
8 -12 12 -3 16 8 3 11 15 7 31 l-5 27 17 -30 c17 -29 56 -66 62 -60 10 9 -11
45 -26 46 -14 0 -13 2 3 9 32 14 35 12 35 -25 0 -19 5 -35 10 -35 6 0 10 6 10
13 0 6 5 4 11 -6 5 -9 18 -17 27 -17 20 -1 72 -44 72 -60 0 -5 4 -10 9 -10 5
0 18 -26 28 -57 l20 -58 46 -3 c50 -3 71 14 49 41 -6 7 -9 22 -6 33 9 32 -30
107 -77 147 -65 56 -68 59 -78 53 -5 -3 -15 1 -22 10 -7 9 -25 20 -39 26 -38
14 -182 20 -213 9 -15 -6 -29 -6 -32 -1 -10 16 13 21 117 22 116 1 180 -17
256 -73 49 -36 110 -138 127 -213 10 -44 15 -51 37 -54 25 -3 26 -2 18 32 -4
19 -16 46 -27 59 -11 14 -36 67 -57 119 -21 51 -47 111 -58 132 -28 52 -31
157 -6 182 15 16 17 15 23 -19 4 -20 14 -42 23 -49 13 -11 15 -10 9 5 -15 41
-20 97 -8 97 7 0 10 8 7 18 -3 9 -2 23 3 31 11 17 34 4 27 -16 -6 -14 39 -113
50 -113 4 0 3 12 0 28 l-7 27 21 -25 c28 -36 52 -89 45 -100 -3 -6 -13 -10
-21 -10 -8 0 -14 -4 -14 -10 0 -13 13 -13 27 1 19 19 33 1 79 -97 47 -100 53
-124 29 -124 -24 0 -29 -27 -11 -56 12 -18 23 -23 37 -19 24 8 26 -21 2 -47
-15 -17 -15 -18 0 -18 10 0 17 -7 17 -15 0 -37 123 -8 163 39 l19 21 -6 -26
c-8 -37 19 -60 30 -27 4 13 7 28 6 35 -2 11 35 43 50 43 18 0 6 -31 -17 -46
-14 -9 -25 -25 -25 -35 0 -18 9 -19 121 -19 l121 0 -3 161 c-4 144 -6 161 -23
171 -15 8 -16 12 -5 19 10 6 11 11 3 17 -13 8 -38 207 -29 222 4 6 2 16 -3 23
-13 16 -56 226 -49 234 18 18 35 -24 41 -103 9 -124 19 -132 45 -37 23 86 29
239 11 274 -7 13 -7 19 0 19 7 0 10 249 10 780 l0 780 -350 0 -350 0 -2 -67
c-1 -38 -1 -80 0 -95 1 -19 -6 -32 -27 -47 -38 -27 -42 -26 -38 7 2 19 10 28
25 30 19 3 22 10 22 50 0 26 3 64 6 85 l7 37 -927 0 -926 0 0 -325z m720 163
c0 -17 -24 -86 -33 -94 -4 -4 -7 18 -7 49 0 50 2 57 20 57 11 0 20 -6 20 -12z
m1608 -45 c-16 -2 -40 -2 -55 0 -16 2 -3 4 27 4 30 0 43 -2 28 -4z m-1218 -53
c19 -10 62 -21 94 -23 44 -3 64 -10 76 -24 11 -15 33 -21 83 -26 78 -7 104
-25 87 -57 -10 -18 -33 -25 -79 -22 -7 0 -43 -11 -80 -25 -53 -20 -77 -24
-121 -19 -36 3 -76 0 -110 -10 -30 -8 -89 -18 -131 -22 l-77 -8 15 50 c8 27
19 60 24 73 5 14 9 36 9 51 1 31 21 62 41 62 8 1 25 7 39 14 30 17 82 11 130
-14z m-756 -260 c-22 -45 -40 -67 -49 -58 -2 2 2 17 10 32 8 16 15 39 15 52 0
25 30 49 41 32 3 -5 -4 -32 -17 -58z m884 -111 c-2 -6 -8 -10 -13 -10 -5 0
-11 4 -13 10 -2 6 4 11 13 11 9 0 15 -5 13 -11z m6 -122 c1 -70 -1 -77 -22
-87 -13 -5 -28 -8 -33 -5 -17 11 -10 108 11 143 31 51 44 36 44 -51z m-352
-19 c-3 -29 5 -34 78 -41 19 -2 6 -4 -30 -5 -73 -2 -85 3 -99 40 -12 31 -5 40
29 36 21 -2 25 -8 22 -30z m-182 -5 c0 -5 -7 -17 -15 -27 -15 -20 -15 -20 -15
0 0 12 3 24 7 27 9 9 23 9 23 0z m343 -40 c-7 -2 -19 -2 -25 0 -7 3 -2 5 12 5
14 0 19 -2 13 -5z m-188 -13 c3 -5 30 -10 60 -10 87 0 94 -9 33 -42 -73 -41
-113 -50 -131 -29 -14 17 -21 66 -11 82 7 12 41 11 49 -1z m267 -42 c-15 -15
-26 -4 -18 18 5 13 9 15 18 6 9 -9 9 -15 0 -24z m-413 -15 c0 -31 -2 -34 -9
-18 -12 28 -12 55 0 55 6 0 10 -17 9 -37z m-181 -4 c2 -9 -5 -19 -14 -23 -18
-7 -34 8 -34 32 0 19 44 11 48 -9z m1285 -308 c10 -17 14 -31 9 -31 -13 0 -39
32 -47 60 -7 21 -5 23 6 13 8 -6 22 -25 32 -42z m96 -116 c-7 -6 -69 54 -69
67 0 6 17 -6 37 -26 20 -19 35 -38 32 -41z m-42 12 c63 -55 74 -62 68 -46 -2
8 -1 20 4 28 8 12 26 9 108 -18 54 -18 105 -35 113 -38 8 -3 22 -7 30 -8 16
-1 151 -50 185 -66 31 -14 -37 -4 -130 20 -31 8 -42 7 -50 -3 -15 -19 -206
-36 -212 -19 -3 7 -10 13 -17 13 -19 1 -78 61 -72 75 2 7 -2 19 -11 27 -14 11
-15 10 -8 -11 4 -13 3 -21 -1 -19 -5 3 -24 11 -41 18 -24 10 -31 19 -28 31 3
10 1 20 -5 24 -13 8 -3 25 16 25 7 0 31 -15 51 -33z m-17 -82 c21 -11 30 -23
30 -40 0 -13 4 -26 9 -29 5 -4 7 3 4 14 -3 11 -1 20 4 20 20 0 104 -63 99 -75
-9 -25 14 -33 58 -20 24 7 68 16 98 20 43 5 57 4 67 -9 8 -9 11 -19 8 -23 -4
-3 -2 -13 5 -20 15 -19 -5 -33 -46 -33 -16 0 -56 -7 -88 -16 -44 -13 -62 -14
-70 -6 -8 8 -6 13 8 18 55 17 55 21 0 19 -39 -2 -64 2 -75 12 -9 7 -35 31 -58
52 -23 21 -56 41 -72 44 -38 8 -45 47 -8 48 l22 0 -23 10 c-13 5 -20 13 -17
19 8 13 11 13 45 -5z m508 -90 c12 -4 22 -14 22 -25 0 -10 6 -20 13 -23 7 -2
8 -8 3 -13 -5 -5 -15 1 -23 14 -9 12 -20 22 -25 22 -6 0 -5 -7 3 -16 10 -13
10 -17 -2 -25 -23 -14 -39 -10 -39 9 0 10 -5 23 -11 29 -17 17 -3 45 18 39 10
-2 28 -7 41 -11z m82 -21 c0 -14 -3 -14 -15 -4 -8 7 -15 14 -15 16 0 2 7 4 15
4 8 0 15 -7 15 -16z m38 -6 c5 -7 13 -23 17 -36 6 -21 4 -23 -16 -20 -19 2
-24 10 -25 36 -2 34 7 41 24 20z m-573 -43 c11 -13 41 -32 67 -43 50 -22 49
-19 73 -167 4 -22 10 -44 14 -50 5 -5 16 -45 26 -88 10 -42 20 -75 22 -73 3 3
-2 36 -11 75 -9 38 -16 75 -16 80 0 6 19 15 43 21 23 6 68 21 99 32 31 11 62
18 69 16 14 -5 68 -205 61 -226 -2 -6 -18 -12 -35 -12 -18 -1 -43 -8 -57 -16
l-25 -15 25 5 c14 2 42 8 63 11 l37 7 2 -86 c1 -47 2 -98 2 -113 1 -21 -5 -28
-29 -36 -16 -5 -37 -16 -46 -24 -25 -21 -89 -29 -100 -12 -7 11 -9 11 -9 -3 0
-23 -34 -40 -73 -36 -27 3 -37 12 -65 58 -38 64 -50 102 -34 108 21 7 13 20
-8 15 -17 -5 -26 7 -55 71 -60 133 -57 171 5 63 35 -61 37 -60 10 11 -17 43
-17 52 -5 52 8 0 19 -9 25 -20 10 -19 12 -19 35 -4 14 9 25 20 25 26 0 23
-100 113 -155 139 -80 39 -105 38 -105 -1 0 -16 -5 -30 -11 -30 -6 0 -8 8 -5
18 4 10 10 73 15 140 6 67 13 127 16 133 11 18 88 0 110 -26z m515 -30 c0 -8
-7 -15 -15 -15 -8 0 -15 7 -15 15 0 8 7 15 15 15 8 0 15 -7 15 -15z m-40 -23
c0 -10 5 -23 11 -29 16 -16 3 -43 -20 -43 -24 0 -26 4 -35 53 -7 35 -5 37 19
37 17 0 25 -5 25 -18z m118 -30 c2 -23 -1 -42 -6 -42 -16 0 -35 29 -29 45 4 8
2 17 -4 20 -14 9 0 27 19 23 12 -2 18 -16 20 -46z m-1824 -8 c-65 -82 -62 -80
-75 -67 -10 10 -9 15 1 28 7 8 18 15 25 15 7 0 26 15 42 33 38 45 44 37 7 -9z
m1583 16 c-3 -13 0 -20 9 -20 8 0 14 -10 14 -25 0 -20 -6 -25 -37 -30 -21 -4
-54 -11 -73 -17 -89 -25 -99 -26 -111 -12 -14 18 -5 41 18 47 11 2 8 4 -6 3
-13 -1 -26 4 -28 10 -5 15 131 58 201 63 14 1 17 -4 13 -19z m181 -8 c2 -14
-2 -22 -11 -22 -15 0 -29 34 -19 45 11 11 27 -2 30 -23z m4 -166 c10 -37 19
-89 20 -114 3 -44 1 -47 -22 -47 -23 0 -25 5 -37 73 -6 40 -17 89 -24 109 -9
29 -9 37 2 44 30 19 44 4 61 -65z m-1946 49 c3 -8 -1 -36 -9 -62 -9 -26 -18
-66 -22 -88 -8 -50 -12 -56 -30 -48 -38 14 5 213 46 213 5 0 12 -7 15 -15z
m31 -48 c-8 -23 -18 -64 -22 -91 -8 -57 -14 -76 -25 -76 -11 0 0 78 16 119 8
18 14 44 14 58 0 25 22 58 29 41 2 -5 -4 -28 -12 -51z m1291 -67 c10 -17 10
-20 -3 -20 -8 0 -15 2 -15 4 0 2 -3 11 -6 20 -9 23 9 20 24 -4z m-1077 -62
l-9 -33 -1 41 c-1 22 2 44 7 48 12 12 14 -19 3 -56z m-295 -65 c-4 -9 -14 -46
-23 -82 -23 -94 -37 -102 -29 -16 9 96 15 115 38 115 15 0 18 -5 14 -17z
m2037 -48 c4 -33 6 -85 5 -115 -3 -47 -6 -55 -23 -55 -18 0 -21 9 -26 97 -4
53 -10 101 -13 107 -11 17 4 32 27 29 19 -3 23 -12 30 -63z m-1814 -20 c-1
-35 -2 -37 -9 -15 -4 14 -8 39 -9 55 0 23 2 26 9 15 5 -8 9 -33 9 -55z m-40
13 c6 -17 8 -34 5 -37 -10 -10 -43 39 -37 54 8 24 20 17 32 -17z m35 -71 c15
-11 17 -21 12 -48 -4 -19 -10 -55 -13 -81 -3 -27 -9 -48 -14 -48 -6 0 -7 15
-4 34 4 20 0 52 -10 81 -22 67 -11 91 29 62z m-364 -138 c0 -11 -7 -19 -16
-19 -11 0 -14 5 -10 16 3 9 6 20 6 25 0 6 5 7 10 4 6 -3 10 -15 10 -26z m1010
21 c0 -6 -11 -10 -25 -10 -24 0 -35 -15 -16 -22 4 -1 12 -13 16 -26 6 -22 5
-22 -14 -10 -12 7 -24 22 -28 33 -3 11 -13 25 -21 31 -12 9 -5 12 36 12 29 1
52 -3 52 -8z m-924 -27 c-10 -10 -19 5 -10 18 6 11 8 11 12 0 2 -7 1 -15 -2
-18z m1044 -23 c0 -24 -18 -36 -33 -21 -8 8 -8 11 1 11 7 0 12 9 12 21 0 11 5
17 10 14 6 -3 10 -15 10 -25z m-379 -3 c-10 -9 -11 -8 -5 6 3 10 9 15 12 12 3
-3 0 -11 -7 -18z m1428 4 c19 -12 6 -41 -19 -41 -13 0 -20 7 -20 18 0 31 14
39 39 23z m-2189 -10 c0 -6 -4 -13 -10 -16 -5 -3 -10 1 -10 9 0 9 5 16 10 16
6 0 10 -4 10 -9z m858 -23 c-4 -27 -28 -36 -28 -10 0 20 8 32 22 32 5 0 8 -10
6 -22z m1215 1 c-4 -13 -29 -32 -70 -52 -54 -27 -65 -30 -73 -17 -8 13 -10 12
-10 -3 0 -10 -8 -21 -17 -24 -15 -6 -15 -7 1 -13 17 -6 17 -7 2 -23 -18 -18
-66 -23 -66 -7 0 5 7 13 16 18 14 8 12 10 -10 16 -39 10 -34 42 9 56 20 7 43
9 51 6 8 -3 17 1 20 9 4 9 19 15 35 15 16 0 43 9 61 20 42 26 58 25 51 -1z
m-713 -10 c0 -5 -4 -9 -10 -9 -5 0 -10 7 -10 16 0 8 5 12 10 9 6 -3 10 -10 10
-16z m-788 -24 c-4 -33 -23 -47 -36 -26 -4 6 29 57 39 61 1 0 -1 -16 -3 -35z
m-585 -22 c-1 -21 -6 -37 -12 -35 -5 1 -10 7 -9 12 1 6 2 21 3 35 0 14 5 25
11 25 5 0 8 -17 7 -37z m2203 17 c0 -5 -9 -10 -20 -10 -11 0 -20 5 -20 10 0 6
9 10 20 10 11 0 20 -4 20 -10z m-1157 -17 c-13 -2 -33 -2 -45 0 -13 2 -3 4 22
4 25 0 35 -2 23 -4z m317 -3 c0 -5 -5 -10 -11 -10 -5 0 -7 5 -4 10 3 6 8 10
11 10 2 0 4 -4 4 -10z m-1260 -30 c0 -11 -7 -20 -15 -20 -15 0 -21 21 -8 33
12 13 23 7 23 -13z m440 16 c0 -2 -7 -7 -16 -10 -8 -3 -12 -2 -9 4 6 10 25 14
25 6z m-220 -36 c0 -11 -4 -20 -9 -20 -5 0 -7 9 -4 20 3 11 7 20 9 20 2 0 4
-9 4 -20z m740 4 c29 4 38 3 25 -3 -11 -4 -43 -10 -70 -13 -44 -4 -51 -2 -52
13 -1 15 2 17 25 8 15 -6 47 -8 72 -5z m1140 -4 c0 -5 -9 -10 -20 -10 -11 0
-20 5 -20 10 0 6 9 10 20 10 11 0 20 -4 20 -10z m-690 -53 c0 -33 -25 -11 -28
24 -3 32 -3 33 12 14 8 -11 16 -28 16 -38z m685 -2 c0 -28 -29 -25 -33 3 -3
19 0 23 15 20 10 -2 18 -12 18 -23z m-251 -30 c-15 -14 -38 -25 -51 -25 -36 0
-23 22 18 33 19 5 38 16 43 25 6 11 11 13 14 4 2 -6 -9 -23 -24 -37z m-704 14
c0 -6 -4 -7 -10 -4 -5 3 -10 11 -10 16 0 6 5 7 10 4 6 -3 10 -11 10 -16z
m-443 -11 c-3 -8 -6 -5 -6 6 -1 11 2 17 5 13 3 -3 4 -12 1 -19z m-27 -9 c0 -6
-4 -7 -10 -4 -5 3 -10 11 -10 16 0 6 5 7 10 4 6 -3 10 -11 10 -16z m485 -10
c11 -17 2 -18 -19 -3 -17 12 -17 14 -4 14 9 0 20 -5 23 -11z"/>
<path d="M2125 531 c-2 -5 1 -14 9 -20 10 -9 15 -8 19 3 6 15 -19 31 -28 17z"/>
<path d="M2030 500 c0 -5 7 -7 15 -4 8 4 15 8 15 10 0 2 -7 4 -15 4 -8 0 -15
-4 -15 -10z"/>
<path d="M2172 385 c0 -11 4 -31 8 -45 6 -20 8 -21 8 -5 0 11 -4 31 -8 45 -6
20 -8 21 -8 5z"/>
<path d="M2140 900 c-8 -5 -10 -10 -5 -10 6 0 17 5 25 10 8 5 11 10 5 10 -5 0
-17 -5 -25 -10z"/>
<path d="M264 1879 c-8 -14 11 -33 25 -25 11 7 4 36 -9 36 -5 0 -12 -5 -16
-11z"/>
<path d="M627 1092 c-20 -22 -21 -32 -6 -32 12 0 38 29 39 43 0 13 -17 7 -33
-11z"/>
<path d="M547 983 c-10 -9 -9 -23 2 -23 5 0 11 7 15 15 5 15 -5 20 -17 8z"/>
<path d="M445 930 c-3 -6 5 -10 19 -10 14 0 28 5 31 10 3 6 -5 10 -19 10 -14
0 -28 -4 -31 -10z"/>
<path d="M226 854 c-10 -25 1 -29 14 -5 6 12 7 21 1 21 -5 0 -12 -7 -15 -16z"/>
<path d="M2512 558 c3 -7 15 -14 29 -16 23 -2 23 -2 5 13 -24 18 -39 20 -34 3z"/>
<path d="M53 414 c-8 -21 13 -39 67 -57 25 -8 46 -14 47 -14 1 1 -1 14 -4 29
-4 20 -15 31 -44 42 -49 20 -58 20 -66 0z"/>
<path d="M75 326 c35 -18 64 -21 49 -6 -5 5 -25 12 -44 15 l-35 5 30 -14z"/>
<path d="M30 310 c-20 -13 -6 -24 58 -45 54 -17 73 -42 25 -31 -26 5 -27 5 -5
-6 24 -12 29 -36 9 -44 -8 -3 -34 2 -58 10 -56 20 -59 20 -59 -4 0 -14 14 -26
50 -41 28 -12 50 -24 50 -28 0 -3 -7 -28 -15 -55 -27 -87 -12 -89 20 -3 17 45
20 48 47 42 22 -5 28 -3 28 11 0 10 -10 28 -21 40 -19 20 -20 27 -10 55 6 18
10 48 10 68 -1 20 -3 28 -6 18 -3 -13 -10 -16 -21 -11 -10 3 -27 9 -40 11 -12
3 -25 9 -28 14 -7 11 -15 11 -34 -1z"/>
<path d="M465 181 c-3 -6 3 -15 14 -20 14 -8 20 -7 24 3 9 24 -24 38 -38 17z"/>
<path d="M934 171 c-17 -10 -41 -33 -53 -49 -22 -31 -55 -102 -49 -107 2 -1
19 -5 38 -8 33 -6 36 -4 51 31 9 20 19 45 23 55 5 15 12 17 36 12 24 -5 37 -1
60 18 16 14 39 28 50 32 11 3 20 13 20 21 0 23 -136 19 -176 -5z"/>
<path d="M1948 124 c-9 -9 25 -64 40 -64 16 0 15 5 -3 40 -15 29 -26 36 -37
24z"/>
<path d="M732 92 c-14 -29 -8 -57 16 -67 12 -5 22 -13 22 -17 0 -14 23 -8 36
10 7 9 14 27 14 39 0 12 5 25 10 28 15 9 12 25 -6 25 -8 0 -12 -5 -9 -10 3 -6
0 -17 -8 -25 -13 -12 -15 -12 -20 4 -6 25 -45 34 -55 13z"/>
<path d="M2015 90 c-3 -5 -2 -10 4 -10 5 0 13 5 16 10 3 6 2 10 -4 10 -5 0
-13 -4 -16 -10z"/>
<path d="M219 71 c-12 -4 -14 -12 -8 -28 11 -29 25 -29 33 -1 6 27 -3 38 -25
29z"/>
<path d="M1995 10 c-3 -5 1 -10 9 -10 9 0 16 5 16 10 0 6 -4 10 -9 10 -6 0
-13 -4 -16 -10z"/>
</g>
</svg>
